<?xml version="1.0" encoding="UTF-8" standalone="no"?>
<!-- Created with Inkscape (http://www.inkscape.org/) -->

<svg
   xmlns:dc="http://purl.org/dc/elements/1.1/"
   xmlns:cc="http://creativecommons.org/ns#"
   xmlns:rdf="http://www.w3.org/1999/02/22-rdf-syntax-ns#"
   xmlns:svg="http://www.w3.org/2000/svg"
   xmlns="http://www.w3.org/2000/svg"
   xmlns:sodipodi="http://sodipodi.sourceforge.net/DTD/sodipodi-0.dtd"
   xmlns:inkscape="http://www.inkscape.org/namespaces/inkscape"
   width="744.09448819"
   height="1052.3622047"
   id="svg2"
   version="1.1"
   inkscape:version="0.48.4 r9939"
   sodipodi:docname="violinschlüssel.svg">
  <defs
     id="defs4">
    <marker
       inkscape:stockid="Arrow1Mstart"
       orient="auto"
       refY="0.0"
       refX="0.0"
       id="Arrow1Mstart"
       style="overflow:visible">
      <path
         id="path6734"
         d="M 0.0,0.0 L 5.0,-5.0 L -12.5,0.0 L 5.0,5.0 L 0.0,0.0 z "
         style="fill-rule:evenodd;stroke:#000000;stroke-width:1.0pt"
         transform="scale(0.4) translate(10,0)" />
    </marker>
    <marker
       inkscape:stockid="Arrow1Mend"
       orient="auto"
       refY="0.0"
       refX="0.0"
       id="Arrow1Mend"
       style="overflow:visible;">
      <path
         id="path6737"
         d="M 0.0,0.0 L 5.0,-5.0 L -12.5,0.0 L 5.0,5.0 L 0.0,0.0 z "
         style="fill-rule:evenodd;stroke:#000000;stroke-width:1.0pt;"
         transform="scale(0.4) rotate(180) translate(10,0)" />
    </marker>
    <marker
       inkscape:stockid="Arrow1Send"
       orient="auto"
       refY="0.0"
       refX="0.0"
       id="Arrow1Send"
       style="overflow:visible;">
      <path
         id="path6743"
         d="M 0.0,0.0 L 5.0,-5.0 L -12.5,0.0 L 5.0,5.0 L 0.0,0.0 z "
         style="fill-rule:evenodd;stroke:#000000;stroke-width:1.0pt;"
         transform="scale(0.2) rotate(180) translate(6,0)" />
    </marker>
    <marker
       inkscape:stockid="Arrow1Lend"
       orient="auto"
       refY="0.0"
       refX="0.0"
       id="Arrow1Lend"
       style="overflow:visible;">
      <path
         id="path6731"
         d="M 0.0,0.0 L 5.0,-5.0 L -12.5,0.0 L 5.0,5.0 L 0.0,0.0 z "
         style="fill-rule:evenodd;stroke:#000000;stroke-width:1.0pt;"
         transform="scale(0.8) rotate(180) translate(12.5,0)" />
    </marker>
    <marker
       inkscape:stockid="Arrow1Lstart"
       orient="auto"
       refY="0.0"
       refX="0.0"
       id="Arrow1Lstart"
       style="overflow:visible">
      <path
         id="path6728"
         d="M 0.0,0.0 L 5.0,-5.0 L -12.5,0.0 L 5.0,5.0 L 0.0,0.0 z "
         style="fill-rule:evenodd;stroke:#000000;stroke-width:1.0pt"
         transform="scale(0.8) translate(12.5,0)" />
    </marker>
  </defs>
  <sodipodi:namedview
     id="base"
     pagecolor="#ffffff"
     bordercolor="#666666"
     borderopacity="1.0"
     inkscape:pageopacity="0.0"
     inkscape:pageshadow="2"
     inkscape:zoom="0.49697719"
     inkscape:cx="372.04724"
     inkscape:cy="526.18109"
     inkscape:document-units="px"
     inkscape:current-layer="layer1"
     showgrid="false"
     inkscape:window-width="1366"
     inkscape:window-height="743"
     inkscape:window-x="0"
     inkscape:window-y="0"
     inkscape:window-maximized="1" />
  <metadata
     id="metadata7">
    <rdf:RDF>
      <cc:Work
         rdf:about="">
        <dc:format>image/svg+xml</dc:format>
        <dc:type
           rdf:resource="http://purl.org/dc/dcmitype/StillImage" />
        <dc:title></dc:title>
      </cc:Work>
    </rdf:RDF>
  </metadata>
  <g
     inkscape:label="Layer 1"
     inkscape:groupmode="layer"
     id="layer1">
    <g
       transform="matrix(0.27574827,0,0,2.0132004,59.325283,-97.652058)"
       id="g6619"
       inkscape:export-filename="/home/ivan/Documents/FAKS/Musik T1/violinschluessel01.png"
       inkscape:export-xdpi="300"
       inkscape:export-ydpi="300">
      <path
         inkscape:tile-y0="95.02824"
         inkscape:tile-x0="89.187312"
         inkscape:tile-h="0"
         inkscape:tile-w="583.43578"
         inkscape:tile-cy="95.02824"
         inkscape:tile-cx="380.9052"
         inkscape:connector-curvature="0"
         id="path6621"
         d="m 89.187312,143.94072 583.435778,0"
         style="fill:none;stroke:#000000;stroke-width:1.64831364px;stroke-linecap:butt;stroke-linejoin:miter;stroke-opacity:1" />
      <path
         style="fill:none;stroke:#000000;stroke-width:1.64831364px;stroke-linecap:butt;stroke-linejoin:miter;stroke-opacity:1"
         d="m 89.187312,134.87275 583.435778,0"
         id="path6623"
         inkscape:connector-curvature="0"
         inkscape:tile-cx="380.9052"
         inkscape:tile-cy="95.02824"
         inkscape:tile-w="583.43578"
         inkscape:tile-h="0"
         inkscape:tile-x0="89.187312"
         inkscape:tile-y0="95.02824" />
      <path
         inkscape:tile-y0="95.02824"
         inkscape:tile-x0="89.187312"
         inkscape:tile-h="0"
         inkscape:tile-w="583.43578"
         inkscape:tile-cy="95.02824"
         inkscape:tile-cx="380.9052"
         inkscape:connector-curvature="0"
         id="path6625"
         d="m 89.187312,125.80478 583.435778,0"
         style="fill:none;stroke:#000000;stroke-width:1.64831364px;stroke-linecap:butt;stroke-linejoin:miter;stroke-opacity:1" />
      <path
         style="fill:none;stroke:#000000;stroke-width:1.64831364px;stroke-linecap:butt;stroke-linejoin:miter;stroke-opacity:1"
         d="m 89.187312,116.73681 583.435778,0"
         id="path6627"
         inkscape:connector-curvature="0"
         inkscape:tile-cx="380.9052"
         inkscape:tile-cy="95.02824"
         inkscape:tile-w="583.43578"
         inkscape:tile-h="0"
         inkscape:tile-x0="89.187312"
         inkscape:tile-y0="95.02824" />
      <path
         inkscape:tile-y0="95.02824"
         inkscape:tile-x0="89.187312"
         inkscape:tile-h="0"
         inkscape:tile-w="583.43578"
         inkscape:tile-cy="95.02824"
         inkscape:tile-cx="380.9052"
         inkscape:connector-curvature="0"
         id="path6629"
         d="m 89.187312,107.66884 583.435778,0"
         style="fill:none;stroke:#000000;stroke-width:1.64831364px;stroke-linecap:butt;stroke-linejoin:miter;stroke-opacity:1" />
    </g>
    <g
       style="font-size:144px;font-style:normal;font-variant:normal;font-weight:normal;font-stretch:normal;line-height:125%;letter-spacing:0px;word-spacing:0px;fill:#000000;fill-opacity:1;stroke:none;font-family:NoteHedz;-inkscape-font-specification:NoteHedz"
       id="text6631"
       transform="matrix(1.0604374,0,0,1.0604374,48.592573,-4.6332154)"
       inkscape:export-filename="/home/ivan/Documents/FAKS/Musik T1/violinschluessel01.png"
       inkscape:export-xdpi="300"
       inkscape:export-ydpi="300">
      <path
         d="m 73.523391,159.10144 4.896,22.032 c 2.01597,-1.05597 3.64797,-2.59196 4.896,-4.608 1.24796,-2.01596 1.87196,-4.22396 1.872,-6.624 -4e-5,-1.24795 -0.096,-2.20795 -0.288,-2.88 -0.28804,-0.67195 -0.86404,-1.63195 -1.728,-2.88 -2.01603,-3.35995 -5.23203,-5.03995 -9.648,-5.04 l 0,0 m -4.032,-18.72 2.448,11.232 c 1.05597,-0.0959 2.01597,-0.14394 2.88,-0.144 2.87997,6e-5 5.47197,0.72006 7.776,2.16 2.39996,1.72806 4.22396,3.79206 5.472,6.192 1.24796,2.40005 1.87196,5.08805 1.872,8.064 -4e-5,3.45604 -1.00804,6.52804 -3.024,9.216 -2.01604,2.59203 -4.75203,4.75203 -8.208,6.48 l 2.88,13.536 c 0.19197,0.48002 0.28797,1.53602 0.288,3.168 -3e-5,3.45601 -1.10403,6.24001 -3.312,8.352 -2.11203,2.208 -5.04003,3.408 -8.784,3.6 -0.76802,0 -1.92002,-0.048 -3.456,-0.144 -0.86402,-0.096 -1.92002,-0.432 -3.168,-1.008 -1.72801,-0.768 -3.26401,-1.824 -4.608,-3.168 -1.34401,-1.43999 -2.01601,-3.07199 -2.016,-4.896 -10e-6,-1.34399 0.23999,-2.68799 0.72,-4.032 0.28799,-0.86398 0.67199,-1.48798 1.152,-1.872 0.19199,-0.38398 0.57599,-0.76798 1.152,-1.152 1.05599,-0.86398 2.20799,-1.43998 3.456,-1.728 2.78398,2e-5 4.89598,1.15202 6.336,3.456 0.57598,0.96002 0.86398,1.96801 0.864,3.024 -2e-5,1.53601 -0.33602,2.78401 -1.008,3.744 -0.67202,0.96001 -1.63202,1.68001 -2.88,2.16 -0.96002,0.48001 -2.06402,0.72001 -3.312,0.72 0.096,1.05601 1.00798,1.776 2.736,2.16 1.24798,0.48 2.49598,0.72 3.744,0.72 3.16798,-0.48 5.56797,-1.53599 7.2,-3.168 0.95997,-1.05599 1.63197,-2.11199 2.016,-3.168 0.38397,-1.05599 0.57597,-2.30399 0.576,-3.744 -3e-5,-1.63198 -0.14403,-3.21598 -0.432,-4.752 l -2.448,-11.088 c -2.20803,0.67203 -4.36802,1.00803 -6.48,1.008 -3.84002,3e-5 -7.58401,-1.00797 -11.232,-3.024 -3.55201,-2.11197 -6.384,-4.79996 -8.496,-8.064 -1.44,-2.59196 -2.352,-4.46396 -2.736,-5.616 -0.384,-0.76795 -0.576,-2.06395 -0.576,-3.888 l -0.144,-3.744 c -0.288,-2.59194 0.24,-5.47194 1.584,-8.64 1.152,-2.49594 2.592,-5.03993 4.32,-7.632 1.05599,-1.24793 2.63999,-3.07193 4.752,-5.472 l 8.064,-8.064 c -0.76802,-2.87991 -1.34402,-5.42391 -1.728,-7.632 -0.38402,-2.30391 -0.57602,-4.75191 -0.576,-7.344 -2e-5,-5.8559 1.48798,-11.27989 4.464,-16.271999 0.67198,-0.95989 1.48798,-1.82388 2.448,-2.592 0.47998,-0.47988 1.43998,-0.91188 2.88,-1.296 0.47997,1.2e-4 1.10397,0.0961 1.872,0.288 0.47997,0.48012 1.10397,1.24812 1.872,2.304 1.24797,2.592109 2.30397,5.328109 3.168,8.207999 0.19197,0.96011 0.47997,2.4481 0.864,4.464 0.28797,1.5361 0.43197,2.7841 0.432,3.744 -3e-5,2.7841 -0.52803,5.85609 -1.584,9.216 -0.67203,2.01609 -1.24803,3.55209 -1.728,4.608 -0.38403,1.05608 -1.15203,2.40008 -2.304,4.032 -1.63203,2.68808 -3.64802,5.18408 -6.048,7.488 l 0,0 m 6.624,41.328 -4.752,-22.464 c -1.92002,0.48005 -3.69602,1.68005 -5.328,3.6 -1.53602,1.82405 -2.30402,3.74405 -2.304,5.76 -2e-5,3.26404 1.91998,5.66404 5.76,7.2 0.38398,0.096 0.57598,0.28804 0.576,0.576 -2e-5,0.48004 -0.38402,0.72004 -1.152,0.72 -2.59202,-0.76796 -4.75202,-2.30396 -6.48,-4.608 -1.63201,-2.39996 -2.44801,-4.99195 -2.448,-7.776 -1e-5,-2.49595 0.95999,-5.03995 2.88,-7.632 2.01598,-2.68794 4.31998,-4.46394 6.912,-5.328 l -2.16,-10.224 c -0.67202,0.57607 -2.16002,1.92007 -4.464,4.032 -1.34401,1.44007 -2.54401,2.68807 -3.6,3.744 -5.18401,5.28006 -7.776,10.84805 -7.776,16.704 0,2.59205 0.432,4.84804 1.296,6.768 1.91999,4.12804 5.42399,7.05603 10.512,8.784 2.49598,0.76803 5.08798,1.15203 7.776,1.152 1.15198,3e-5 2.73597,-0.33597 4.752,-1.008 l 0,0 m 1.296,-72 -0.432,-1.728 c -0.19203,-0.86389 -0.67203,-1.82389 -1.44,-2.88 -0.48003,-0.67189 -1.15203,-1.00789 -2.016,-1.008 -0.67202,0.19211 -1.20002,0.52811 -1.584,1.008 -0.38402,0.28811 -1.10402,1.24811 -2.16,2.88 -1.63202,2.4001 -2.78402,5.5681 -3.456,9.504 -0.19202,1.1521 -0.28802,2.16009 -0.288,3.024 -2e-5,2.40009 0.43198,5.28009 1.296,8.64 2.68798,-2.11191 5.27998,-5.32791 7.776,-9.648 1.05597,-1.8239 1.67997,-3.3599 1.872,-4.608 0.28797,-1.2479 0.43197,-2.9759 0.432,-5.184 l 0,0"
         id="path6636"
         inkscape:connector-curvature="0" />
    </g>
    <path
       style="fill:none;stroke:#000000;stroke-width:1px;stroke-linecap:butt;stroke-linejoin:miter;stroke-opacity:1"
       d="m 186.89795,184.20363 c -7.54589,-0.26545 -12.67091,-5.88105 -13.11778,-12.15686 -0.44686,-6.27581 3.72283,-14.83909 13.25918,-15.00454 9.53635,-0.16546 19.2597,1.87865 20.14431,15.98773 0.88462,14.10908 -8.77489,18.21727 -17.30626,18.34843 -8.53137,0.13116 -24.40414,-3.35409 -24.44253,-19.67796 -0.0692,-11.19047 12.41934,-30.31835 18.2133,-37.65553 5.79396,-7.33718 11.93397,-22.27142 11.69912,-25.4423 -0.23485,-3.17088 1.77053,-13.710354 -5.08018,-18.791322 -4.36925,2.160358 -8.55861,17.034382 -7.53882,26.941092 1.01978,9.90671 2.67623,20.23904 4.07939,29.30354 0.7444,9.78283 3.0764,18.91299 4.0503,24.10409 0.9739,5.1911 0.58325,4.38641 2.57983,12.92892 1.99659,8.54251 4.58885,17.60897 4.37931,25.9089 -0.13574,5.37656 -4.87334,9.31414 -10.07716,8.97423 -5.41352,-0.39174 -7.87891,-6.28344 -2.47286,-9.90306"
       id="path6691"
       inkscape:connector-curvature="0"
       sodipodi:nodetypes="czzzzczzczczzscc"
       inkscape:export-filename="/home/ivan/Documents/FAKS/Musik T1/violinschluessel01.png"
       inkscape:export-xdpi="300"
       inkscape:export-ydpi="300" />
    <g
       id="g6696"
       transform="matrix(0.61356288,0,0,2.0132004,33.313702,39.175159)"
       inkscape:export-filename="/home/ivan/Documents/FAKS/Musik T1/violinschluessel02.png"
       inkscape:export-xdpi="300"
       inkscape:export-ydpi="300">
      <path
         style="fill:none;stroke:#000000;stroke-width:1.10501444px;stroke-linecap:butt;stroke-linejoin:miter;stroke-opacity:1"
         d="m 89.187312,143.94072 583.435778,0"
         id="path6698"
         inkscape:connector-curvature="0"
         inkscape:tile-cx="380.9052"
         inkscape:tile-cy="95.02824"
         inkscape:tile-w="583.43578"
         inkscape:tile-h="0"
         inkscape:tile-x0="89.187312"
         inkscape:tile-y0="95.02824" />
      <path
         inkscape:tile-y0="95.02824"
         inkscape:tile-x0="89.187312"
         inkscape:tile-h="0"
         inkscape:tile-w="583.43578"
         inkscape:tile-cy="95.02824"
         inkscape:tile-cx="380.9052"
         inkscape:connector-curvature="0"
         id="path6700"
         d="m 89.187312,134.87275 583.435778,0"
         style="fill:none;stroke:#000000;stroke-width:1.10501444px;stroke-linecap:butt;stroke-linejoin:miter;stroke-opacity:1" />
      <path
         style="fill:none;stroke:#000000;stroke-width:1.10501444px;stroke-linecap:butt;stroke-linejoin:miter;stroke-opacity:1"
         d="m 89.187312,125.80478 583.435778,0"
         id="path6702"
         inkscape:connector-curvature="0"
         inkscape:tile-cx="380.9052"
         inkscape:tile-cy="95.02824"
         inkscape:tile-w="583.43578"
         inkscape:tile-h="0"
         inkscape:tile-x0="89.187312"
         inkscape:tile-y0="95.02824" />
      <path
         inkscape:tile-y0="95.02824"
         inkscape:tile-x0="89.187312"
         inkscape:tile-h="0"
         inkscape:tile-w="583.43578"
         inkscape:tile-cy="95.02824"
         inkscape:tile-cx="380.9052"
         inkscape:connector-curvature="0"
         id="path6704"
         d="m 89.187312,116.73681 583.435778,0"
         style="fill:none;stroke:#000000;stroke-width:1.10501444px;stroke-linecap:butt;stroke-linejoin:miter;stroke-opacity:1" />
      <path
         style="fill:none;stroke:#000000;stroke-width:1.10501444px;stroke-linecap:butt;stroke-linejoin:miter;stroke-opacity:1"
         d="m 89.187312,107.66884 583.435778,0"
         id="path6706"
         inkscape:connector-curvature="0"
         inkscape:tile-cx="380.9052"
         inkscape:tile-cy="95.02824"
         inkscape:tile-w="583.43578"
         inkscape:tile-h="0"
         inkscape:tile-x0="89.187312"
         inkscape:tile-y0="95.02824" />
    </g>
    <path
       style="fill:none;stroke:#000000;stroke-width:1px;stroke-linecap:butt;stroke-linejoin:miter;stroke-opacity:1"
       d="m 398.72874,321.03084 c -7.54589,-0.26545 -12.67091,-5.88105 -13.11778,-12.15686 -0.44686,-6.27581 3.72283,-14.83909 13.25918,-15.00454 9.53635,-0.16546 19.2597,1.87865 20.14431,15.98773 0.88462,14.10908 -8.77489,18.21727 -17.30626,18.34843 -8.53137,0.13116 -24.40414,-3.35409 -24.44253,-19.67796 -0.0692,-11.19047 12.41934,-30.31835 18.2133,-37.65553 5.79396,-7.33718 11.93397,-22.27142 11.69912,-25.4423 -0.23485,-3.17088 1.77053,-13.71036 -5.08018,-18.79133 -4.36925,2.16036 -8.55861,17.03439 -7.53882,26.9411 1.01978,9.90671 2.67623,20.23904 4.07939,29.30354 0.7444,9.78283 3.0764,18.91299 4.0503,24.10409 0.9739,5.1911 0.58325,4.38641 2.57983,12.92892 1.99659,8.54251 4.58885,17.60897 4.37931,25.9089 -0.13574,5.37656 -4.87334,9.31414 -10.07716,8.97423 -5.41352,-0.39174 -7.87891,-6.28344 -2.47286,-9.90306"
       id="path6714"
       inkscape:connector-curvature="0"
       sodipodi:nodetypes="czzzzczzczczzscc"
       inkscape:export-filename="/home/ivan/Documents/FAKS/Musik T1/violinschluessel02.png"
       inkscape:export-xdpi="300"
       inkscape:export-ydpi="300" />
    <path
       sodipodi:nodetypes="czzzzczzczcc"
       inkscape:connector-curvature="0"
       id="path6716"
       d="m 331.92311,321.03084 c -7.54589,-0.26545 -12.67091,-5.88105 -13.11778,-12.15686 -0.44686,-6.27581 3.72283,-14.83909 13.25918,-15.00454 9.53635,-0.16546 19.2597,1.87865 20.14431,15.98773 0.88462,14.10908 -8.77489,18.21727 -17.30626,18.34843 -8.53137,0.13116 -24.40414,-3.35409 -24.44253,-19.67796 -0.0692,-11.19047 12.41934,-30.31835 18.2133,-37.65553 5.79396,-7.33718 11.93397,-22.27142 11.69912,-25.4423 -0.23485,-3.17088 1.77053,-13.71036 -5.08018,-18.79133 -4.36925,2.16036 -8.55861,17.03439 -7.53882,26.9411 1.01978,9.90671 2.67623,20.23904 4.07939,29.30354 0.7444,9.78283 3.0764,18.91299 4.0503,24.10409"
       style="fill:none;stroke:#000000;stroke-width:1px;stroke-linecap:butt;stroke-linejoin:miter;stroke-opacity:1;marker-end:url(#Arrow1Mend)"
       inkscape:export-filename="/home/ivan/Documents/FAKS/Musik T1/violinschluessel02.png"
       inkscape:export-xdpi="300"
       inkscape:export-ydpi="300" />
    <path
       style="fill:none;stroke:#000000;stroke-width:1px;stroke-linecap:butt;stroke-linejoin:miter;stroke-opacity:1;marker-end:url(#Arrow1Mend)"
       d="m 265.11747,321.03084 c -7.54589,-0.26545 -12.67091,-5.88105 -13.11778,-12.15686 -0.44686,-6.27581 3.72283,-14.83909 13.25918,-15.00454 9.53635,-0.16546 19.2597,1.87865 20.14431,15.98773 0.88462,14.10908 -8.77489,18.21727 -17.30626,18.34843 -8.53137,0.13116 -24.40414,-3.35409 -24.44253,-19.67796 -0.0692,-11.19047 12.41934,-30.31835 18.2133,-37.65553 5.79396,-7.33718 11.93397,-22.27142 11.69912,-25.4423 -0.23485,-3.17088 1.77053,-13.71036 -5.08018,-18.79133"
       id="path6718"
       inkscape:connector-curvature="0"
       sodipodi:nodetypes="czzzzczzc"
       inkscape:export-filename="/home/ivan/Documents/FAKS/Musik T1/violinschluessel02.png"
       inkscape:export-xdpi="300"
       inkscape:export-ydpi="300" />
    <path
       sodipodi:nodetypes="czzzzc"
       inkscape:connector-curvature="0"
       id="path6720"
       d="m 198.31184,321.03084 c -7.54589,-0.26545 -12.67091,-5.88105 -13.11778,-12.15686 -0.44686,-6.27581 3.72283,-14.83909 13.25918,-15.00454 9.53635,-0.16546 19.2597,1.87865 20.14431,15.98773 0.88462,14.10908 -8.77489,18.21727 -17.30626,18.34843 -8.53137,0.13116 -24.40414,-3.35409 -24.44253,-19.67796"
       style="fill:none;stroke:#000000;stroke-width:1px;stroke-linecap:butt;stroke-linejoin:miter;stroke-opacity:1;marker-end:url(#Arrow1Mend)"
       inkscape:export-filename="/home/ivan/Documents/FAKS/Musik T1/violinschluessel02.png"
       inkscape:export-xdpi="300"
       inkscape:export-ydpi="300" />
    <path
       style="fill:none;stroke:#000000;stroke-width:1px;stroke-linecap:butt;stroke-linejoin:miter;stroke-opacity:1;marker-start:url(#Arrow1Mend);marker-end:url(#Arrow1Mend)"
       d="m 131.50621,321.03084 c -7.54589,-0.26545 -12.67091,-5.88105 -13.11778,-12.15686 -0.44686,-6.27581 3.72283,-14.83909 13.25918,-15.00454 9.53635,-0.16546 19.2597,1.87865 20.14431,15.98773"
       id="path6722"
       inkscape:connector-curvature="0"
       sodipodi:nodetypes="czzc"
       inkscape:export-filename="/home/ivan/Documents/FAKS/Musik T1/violinschluessel02.png"
       inkscape:export-xdpi="300"
       inkscape:export-ydpi="300" />
    <g
       inkscape:export-ydpi="300"
       inkscape:export-xdpi="300"
       inkscape:export-filename="/home/ivan/Documents/FAKS/Musik T1/violinschluessel03.png"
       transform="matrix(0.97485797,0,0,2.0132004,1.4509358,188.67746)"
       id="g8684">
      <path
         inkscape:tile-y0="95.02824"
         inkscape:tile-x0="89.187312"
         inkscape:tile-h="0"
         inkscape:tile-w="583.43578"
         inkscape:tile-cy="95.02824"
         inkscape:tile-cx="380.9052"
         inkscape:connector-curvature="0"
         id="path8686"
         d="m 89.187312,143.94072 583.435778,0"
         style="fill:none;stroke:#000000;stroke-width:0.87665117px;stroke-linecap:butt;stroke-linejoin:miter;stroke-opacity:1" />
      <path
         style="fill:none;stroke:#000000;stroke-width:0.87665117px;stroke-linecap:butt;stroke-linejoin:miter;stroke-opacity:1"
         d="m 89.187312,134.87275 583.435778,0"
         id="path8688"
         inkscape:connector-curvature="0"
         inkscape:tile-cx="380.9052"
         inkscape:tile-cy="95.02824"
         inkscape:tile-w="583.43578"
         inkscape:tile-h="0"
         inkscape:tile-x0="89.187312"
         inkscape:tile-y0="95.02824" />
      <path
         inkscape:tile-y0="95.02824"
         inkscape:tile-x0="89.187312"
         inkscape:tile-h="0"
         inkscape:tile-w="583.43578"
         inkscape:tile-cy="95.02824"
         inkscape:tile-cx="380.9052"
         inkscape:connector-curvature="0"
         id="path8690"
         d="m 89.187312,125.80478 583.435778,0"
         style="fill:none;stroke:#000000;stroke-width:0.87665117px;stroke-linecap:butt;stroke-linejoin:miter;stroke-opacity:1" />
      <path
         style="fill:none;stroke:#000000;stroke-width:0.87665117px;stroke-linecap:butt;stroke-linejoin:miter;stroke-opacity:1"
         d="m 89.187312,116.73681 583.435778,0"
         id="path8692"
         inkscape:connector-curvature="0"
         inkscape:tile-cx="380.9052"
         inkscape:tile-cy="95.02824"
         inkscape:tile-w="583.43578"
         inkscape:tile-h="0"
         inkscape:tile-x0="89.187312"
         inkscape:tile-y0="95.02824" />
      <path
         inkscape:tile-y0="95.02824"
         inkscape:tile-x0="89.187312"
         inkscape:tile-h="0"
         inkscape:tile-w="583.43578"
         inkscape:tile-cy="95.02824"
         inkscape:tile-cx="380.9052"
         inkscape:connector-curvature="0"
         id="path8694"
         d="m 89.187312,107.66884 583.435778,0"
         style="fill:none;stroke:#000000;stroke-width:0.87665117px;stroke-linecap:butt;stroke-linejoin:miter;stroke-opacity:1" />
    </g>
    <path
       inkscape:export-ydpi="300"
       inkscape:export-xdpi="300"
       inkscape:export-filename="/home/ivan/Documents/FAKS/Musik T1/violinschluessel03.png"
       sodipodi:nodetypes="czzzzczzczczzscc"
       inkscape:connector-curvature="0"
       id="path8724"
       d="m 602.17114,470.53124 c -6.96839,-0.26545 -11.7012,-5.88105 -12.11396,-12.15686 -0.41261,-6.27581 3.43805,-14.83909 12.24443,-15.00454 8.80668,-0.16546 17.78596,1.87865 18.6028,15.98773 0.81674,14.10914 -8.10336,18.21733 -15.98185,18.34849 -7.87846,0.13116 -22.5365,-3.35409 -22.57193,-19.67802 -0.0692,-11.19047 11.4689,-30.31835 16.81945,-37.65553 5.35052,-7.33712 11.02065,-22.27136 10.80381,-25.44224 -0.21689,-3.17088 1.63486,-13.71036 -4.69151,-18.79133 -4.03479,2.16036 -7.90353,17.03439 -6.96181,26.9411 0.94165,9.90671 2.47146,20.23898 3.7671,29.30348 0.68742,9.78283 2.84107,18.91299 3.74046,24.10409 0.89937,5.1911 0.53861,4.38641 2.38232,12.92892 1.84386,8.54257 4.23776,17.60903 4.04415,25.90896 -0.12526,5.37656 -4.5003,9.31414 -9.30586,8.97423 -4.99924,-0.39174 -7.27599,-6.28344 -2.28367,-9.90306"
       style="fill:none;stroke:#000000;stroke-width:0.99999356px;stroke-linecap:butt;stroke-linejoin:miter;stroke-opacity:1" />
    <g
       id="g8726"
       transform="matrix(0.97485797,0,0,2.0132004,-2.5733938,341.60198)"
       inkscape:export-filename="/home/ivan/Documents/FAKS/Musik T1/violinschluessel04.png"
       inkscape:export-xdpi="300"
       inkscape:export-ydpi="300">
      <path
         style="fill:none;stroke:#000000;stroke-width:0.87665117px;stroke-linecap:butt;stroke-linejoin:miter;stroke-opacity:1"
         d="m 89.187312,143.94072 583.435778,0"
         id="path8728"
         inkscape:connector-curvature="0"
         inkscape:tile-cx="380.9052"
         inkscape:tile-cy="95.02824"
         inkscape:tile-w="583.43578"
         inkscape:tile-h="0"
         inkscape:tile-x0="89.187312"
         inkscape:tile-y0="95.02824" />
      <path
         inkscape:tile-y0="95.02824"
         inkscape:tile-x0="89.187312"
         inkscape:tile-h="0"
         inkscape:tile-w="583.43578"
         inkscape:tile-cy="95.02824"
         inkscape:tile-cx="380.9052"
         inkscape:connector-curvature="0"
         id="path8730"
         d="m 89.187312,134.87275 583.435778,0"
         style="fill:none;stroke:#000000;stroke-width:0.87665117px;stroke-linecap:butt;stroke-linejoin:miter;stroke-opacity:1" />
      <path
         style="fill:none;stroke:#000000;stroke-width:0.87665117px;stroke-linecap:butt;stroke-linejoin:miter;stroke-opacity:1"
         d="m 89.187312,125.80478 583.435778,0"
         id="path8732"
         inkscape:connector-curvature="0"
         inkscape:tile-cx="380.9052"
         inkscape:tile-cy="95.02824"
         inkscape:tile-w="583.43578"
         inkscape:tile-h="0"
         inkscape:tile-x0="89.187312"
         inkscape:tile-y0="95.02824" />
      <path
         inkscape:tile-y0="95.02824"
         inkscape:tile-x0="89.187312"
         inkscape:tile-h="0"
         inkscape:tile-w="583.43578"
         inkscape:tile-cy="95.02824"
         inkscape:tile-cx="380.9052"
         inkscape:connector-curvature="0"
         id="path8734"
         d="m 89.187312,116.73681 583.435778,0"
         style="fill:none;stroke:#000000;stroke-width:0.87665117px;stroke-linecap:butt;stroke-linejoin:miter;stroke-opacity:1" />
      <path
         style="fill:none;stroke:#000000;stroke-width:0.87665117px;stroke-linecap:butt;stroke-linejoin:miter;stroke-opacity:1"
         d="m 89.187312,107.66884 583.435778,0"
         id="path8736"
         inkscape:connector-curvature="0"
         inkscape:tile-cx="380.9052"
         inkscape:tile-cy="95.02824"
         inkscape:tile-w="583.43578"
         inkscape:tile-h="0"
         inkscape:tile-x0="89.187312"
         inkscape:tile-y0="95.02824" />
    </g>
    <path
       inkscape:export-ydpi="300"
       inkscape:export-xdpi="300"
       inkscape:export-filename="/home/ivan/Documents/FAKS/Musik T1/violinschluessel04.png"
       style="fill:none;stroke:#000000;stroke-width:1px;stroke-linecap:butt;stroke-linejoin:miter;stroke-opacity:1;marker-end:url(#Arrow1Mend)"
       d="m 623.09088,622.85556 c -7.54589,-0.26545 -12.67091,-5.88105 -13.11778,-12.15686 -0.44686,-6.27581 3.72283,-14.83909 13.25918,-15.00454 9.53635,-0.16546 19.2597,1.87865 20.14431,15.98773 0.88462,14.10908 -8.77489,18.21727 -17.30626,18.34843 -8.53137,0.13116 -24.40414,-3.35409 -24.44253,-19.67796 -0.0692,-11.19047 12.41934,-30.31835 18.2133,-37.65553 5.79396,-7.33718 11.93397,-22.27142 11.69912,-25.4423 -0.23485,-3.17088 1.77053,-13.71036 -5.08018,-18.79133 -4.36925,2.16036 -8.55861,17.03439 -7.53882,26.9411 1.01978,9.90671 2.67623,20.23904 4.07939,29.30354 0.7444,9.78283 3.0764,18.91299 4.0503,24.10409"
       id="path8738"
       inkscape:connector-curvature="0"
       sodipodi:nodetypes="czzzzczzczcc" />
    <path
       sodipodi:nodetypes="czzzzczzczcc"
       inkscape:connector-curvature="0"
       id="path8740"
       d="m 497.47961,622.85556 c -7.54589,-0.26545 -12.67091,-5.88105 -13.11778,-12.15686 -0.44686,-6.27581 3.72283,-14.83909 13.25918,-15.00454 9.53635,-0.16546 19.2597,1.87865 20.14431,15.98773 0.88462,14.10908 -8.77489,18.21727 -17.30626,18.34843 -8.53137,0.13116 -24.40414,-3.35409 -24.44253,-19.67796 -0.0692,-11.19047 12.41934,-30.31835 18.2133,-37.65553 5.79396,-7.33718 11.93397,-22.27142 11.69912,-25.4423 -0.23485,-3.17088 1.77053,-13.71036 -5.08018,-18.79133 -4.36925,2.16036 -8.55861,17.03439 -7.53882,26.9411 1.01978,9.90671 2.67623,20.23904 4.07939,29.30354 0.7444,9.78283 3.0764,18.91299 4.0503,24.10409"
       style="fill:none;stroke:#000000;stroke-width:1px;stroke-linecap:butt;stroke-linejoin:miter;stroke-opacity:1;marker-end:url(#Arrow1Mend)"
       inkscape:export-filename="/home/ivan/Documents/FAKS/Musik T1/violinschluessel04.png"
       inkscape:export-xdpi="300"
       inkscape:export-ydpi="300" />
    <path
       inkscape:export-ydpi="300"
       inkscape:export-xdpi="300"
       inkscape:export-filename="/home/ivan/Documents/FAKS/Musik T1/violinschluessel04.png"
       style="fill:none;stroke:#000000;stroke-width:1px;stroke-linecap:butt;stroke-linejoin:miter;stroke-opacity:1;marker-end:url(#Arrow1Mend)"
       d="m 434.67398,622.85556 c -7.54589,-0.26545 -12.67091,-5.88105 -13.11778,-12.15686 -0.44686,-6.27581 3.72283,-14.83909 13.25918,-15.00454 9.53635,-0.16546 19.2597,1.87865 20.14431,15.98773 0.88462,14.10908 -8.77489,18.21727 -17.30626,18.34843 -8.53137,0.13116 -24.40414,-3.35409 -24.44253,-19.67796 -0.0692,-11.19047 12.41934,-30.31835 18.2133,-37.65553 5.79396,-7.33718 11.93397,-22.27142 11.69912,-25.4423 -0.23485,-3.17088 1.77053,-13.71036 -5.08018,-18.79133 -4.36925,2.16036 -8.55861,17.03439 -7.53882,26.9411 1.01978,9.90671 2.67623,20.23904 4.07939,29.30354 0.7444,9.78283 3.0764,18.91299 4.0503,24.10409"
       id="path8742"
       inkscape:connector-curvature="0"
       sodipodi:nodetypes="czzzzczzczcc" />
    <path
       sodipodi:nodetypes="czzzzczzczcc"
       inkscape:connector-curvature="0"
       id="path8744"
       d="m 371.86835,622.85556 c -7.54589,-0.26545 -12.67091,-5.88105 -13.11778,-12.15686 -0.44686,-6.27581 3.72283,-14.83909 13.25918,-15.00454 9.53635,-0.16546 19.2597,1.87865 20.14431,15.98773 0.88462,14.10908 -8.77489,18.21727 -17.30626,18.34843 -8.53137,0.13116 -24.40415,-3.35409 -24.44254,-19.67796 -0.0692,-11.19047 12.41935,-30.31835 18.21331,-37.65553 5.79396,-7.33718 11.93397,-22.27142 11.69912,-25.4423 -0.23485,-3.17088 1.77053,-13.71036 -5.08018,-18.79133 -4.36925,2.16036 -8.55861,17.03439 -7.53882,26.9411 1.01978,9.90671 2.67623,20.23904 4.07939,29.30354 0.7444,9.78283 3.0764,18.91299 4.0503,24.10409"
       style="fill:none;stroke:#000000;stroke-width:1px;stroke-linecap:butt;stroke-linejoin:miter;stroke-opacity:1;marker-end:url(#Arrow1Mend)"
       inkscape:export-filename="/home/ivan/Documents/FAKS/Musik T1/violinschluessel04.png"
       inkscape:export-xdpi="300"
       inkscape:export-ydpi="300" />
    <path
       inkscape:export-ydpi="300"
       inkscape:export-xdpi="300"
       inkscape:export-filename="/home/ivan/Documents/FAKS/Musik T1/violinschluessel04.png"
       style="fill:none;stroke:#000000;stroke-width:1px;stroke-linecap:butt;stroke-linejoin:miter;stroke-opacity:1;marker-end:url(#Arrow1Mend)"
       d="m 309.06271,622.85556 c -7.54589,-0.26545 -12.67091,-5.88105 -13.11778,-12.15686 -0.44686,-6.27581 3.72283,-14.83909 13.25918,-15.00454 9.53635,-0.16546 19.2597,1.87865 20.14431,15.98773 0.88462,14.10908 -8.77489,18.21727 -17.30626,18.34843 -8.53137,0.13116 -24.40414,-3.35409 -24.44253,-19.67796 -0.0692,-11.19047 12.41934,-30.31835 18.2133,-37.65553 5.79396,-7.33718 11.93397,-22.27142 11.69912,-25.4423 -0.23485,-3.17088 1.77053,-13.71036 -5.08018,-18.79133 -4.36925,2.16036 -8.55861,17.03439 -7.53882,26.9411 1.01978,9.90671 2.67623,20.23904 4.07939,29.30354 0.7444,9.78283 3.0764,18.91299 4.0503,24.10409"
       id="path8746"
       inkscape:connector-curvature="0"
       sodipodi:nodetypes="czzzzczzczcc" />
    <path
       sodipodi:nodetypes="czzzzczzczcc"
       inkscape:connector-curvature="0"
       id="path8748"
       d="m 246.25707,622.85556 c -7.54589,-0.26545 -12.67091,-5.88105 -13.11778,-12.15686 -0.44686,-6.27581 3.72283,-14.83909 13.25918,-15.00454 9.53635,-0.16546 19.2597,1.87865 20.14431,15.98773 0.88462,14.10908 -8.77489,18.21727 -17.30626,18.34843 -8.53137,0.13116 -24.40414,-3.35409 -24.44253,-19.67796 -0.0692,-11.19047 12.41934,-30.31835 18.2133,-37.65553 5.79396,-7.33718 11.93397,-22.27142 11.69912,-25.4423 -0.23485,-3.17088 1.77053,-13.71036 -5.08018,-18.79133 -4.36925,2.16036 -8.55861,17.03439 -7.53882,26.9411 1.01978,9.90671 2.67623,20.23904 4.07939,29.30354 0.7444,9.78283 3.0764,18.91299 4.0503,24.10409"
       style="fill:none;stroke:#000000;stroke-width:1px;stroke-linecap:butt;stroke-linejoin:miter;stroke-opacity:1;marker-end:url(#Arrow1Mend)"
       inkscape:export-filename="/home/ivan/Documents/FAKS/Musik T1/violinschluessel04.png"
       inkscape:export-xdpi="300"
       inkscape:export-ydpi="300" />
    <path
       inkscape:export-ydpi="300"
       inkscape:export-xdpi="300"
       inkscape:export-filename="/home/ivan/Documents/FAKS/Musik T1/violinschluessel04.png"
       style="fill:none;stroke:#000000;stroke-width:1px;stroke-linecap:butt;stroke-linejoin:miter;stroke-opacity:1;marker-end:url(#Arrow1Mend)"
       d="m 183.45144,622.85556 c -7.54589,-0.26545 -12.67091,-5.88105 -13.11778,-12.15686 -0.44686,-6.27581 3.72283,-14.83909 13.25918,-15.00454 9.53635,-0.16546 19.2597,1.87865 20.14431,15.98773 0.88462,14.10908 -8.77489,18.21727 -17.30626,18.34843 -8.53137,0.13116 -24.40414,-3.35409 -24.44253,-19.67796 -0.0692,-11.19047 12.41934,-30.31835 18.2133,-37.65553 5.79396,-7.33718 11.93397,-22.27142 11.69912,-25.4423 -0.23485,-3.17088 1.77053,-13.71036 -5.08018,-18.79133 -4.36925,2.16036 -8.55861,17.03439 -7.53882,26.9411 1.01978,9.90671 2.67623,20.23904 4.07939,29.30354 0.7444,9.78283 3.0764,18.91299 4.0503,24.10409"
       id="path8750"
       inkscape:connector-curvature="0"
       sodipodi:nodetypes="czzzzczzczcc" />
    <path
       sodipodi:nodetypes="czzzzczzczcc"
       inkscape:connector-curvature="0"
       id="path8752"
       d="m 120.64581,622.85556 c -7.54589,-0.26545 -12.67091,-5.88105 -13.11778,-12.15686 -0.44686,-6.27581 3.72283,-14.83909 13.25918,-15.00454 9.53635,-0.16546 19.2597,1.87865 20.14431,15.98773 0.88462,14.10908 -8.77489,18.21727 -17.30626,18.34843 -8.53137,0.13116 -24.404142,-3.35409 -24.442532,-19.67796 -0.0692,-11.19047 12.419342,-30.31835 18.213302,-37.65553 5.79396,-7.33718 11.93397,-22.27142 11.69912,-25.4423 -0.23485,-3.17088 1.77053,-13.71036 -5.08018,-18.79133 -4.36925,2.16036 -8.55861,17.03439 -7.53882,26.9411 1.01978,9.90671 2.67623,20.23904 4.07939,29.30354 0.7444,9.78283 3.0764,18.91299 4.0503,24.10409"
       style="fill:none;stroke:#000000;stroke-width:1px;stroke-linecap:butt;stroke-linejoin:miter;stroke-opacity:1;marker-end:url(#Arrow1Mend)"
       inkscape:export-filename="/home/ivan/Documents/FAKS/Musik T1/violinschluessel04.png"
       inkscape:export-xdpi="300"
       inkscape:export-ydpi="300" />
    <path
       sodipodi:nodetypes="czzzzczzczcc"
       inkscape:connector-curvature="0"
       id="path8754"
       d="m 560.28525,622.85556 c -7.54589,-0.26545 -12.67091,-5.88105 -13.11778,-12.15686 -0.44686,-6.27581 3.72283,-14.83909 13.25918,-15.00454 9.53635,-0.16546 19.2597,1.87865 20.14431,15.98773 0.88462,14.10908 -8.77489,18.21727 -17.30626,18.34843 -8.53137,0.13116 -24.40414,-3.35409 -24.44253,-19.67796 -0.0692,-11.19047 12.41934,-30.31835 18.2133,-37.65553 5.79396,-7.33718 11.93397,-22.27142 11.69912,-25.4423 -0.23485,-3.17088 1.77053,-13.71036 -5.08018,-18.79133 -4.36925,2.16036 -8.55861,17.03439 -7.53882,26.9411 1.01978,9.90671 2.67623,20.23904 4.07939,29.30354 0.7444,9.78283 3.0764,18.91299 4.0503,24.10409"
       style="fill:none;stroke:#000000;stroke-width:1px;stroke-linecap:butt;stroke-linejoin:miter;stroke-opacity:1;marker-end:url(#Arrow1Mend)"
       inkscape:export-filename="/home/ivan/Documents/FAKS/Musik T1/violinschluessel04.png"
       inkscape:export-xdpi="300"
       inkscape:export-ydpi="300" />
    <g
       inkscape:export-ydpi="300"
       inkscape:export-xdpi="300"
       inkscape:export-filename="/home/ivan/Documents/FAKS/Musik T1/violinschluessel02.png"
       transform="matrix(0.96757677,0,0,2.0132004,0.08229035,467.76626)"
       id="g8756">
      <path
         inkscape:tile-y0="95.02824"
         inkscape:tile-x0="89.187312"
         inkscape:tile-h="0"
         inkscape:tile-w="583.43578"
         inkscape:tile-cy="95.02824"
         inkscape:tile-cx="380.9052"
         inkscape:connector-curvature="0"
         id="path8758"
         d="m 89.187312,143.94072 583.435778,0"
         style="fill:none;stroke:#000000;stroke-width:0.87994349px;stroke-linecap:butt;stroke-linejoin:miter;stroke-opacity:1" />
      <path
         style="fill:none;stroke:#000000;stroke-width:0.87994349px;stroke-linecap:butt;stroke-linejoin:miter;stroke-opacity:1"
         d="m 89.187312,134.87275 583.435778,0"
         id="path8760"
         inkscape:connector-curvature="0"
         inkscape:tile-cx="380.9052"
         inkscape:tile-cy="95.02824"
         inkscape:tile-w="583.43578"
         inkscape:tile-h="0"
         inkscape:tile-x0="89.187312"
         inkscape:tile-y0="95.02824" />
      <path
         inkscape:tile-y0="95.02824"
         inkscape:tile-x0="89.187312"
         inkscape:tile-h="0"
         inkscape:tile-w="583.43578"
         inkscape:tile-cy="95.02824"
         inkscape:tile-cx="380.9052"
         inkscape:connector-curvature="0"
         id="path8762"
         d="m 89.187312,125.80478 583.435778,0"
         style="fill:none;stroke:#000000;stroke-width:0.87994349px;stroke-linecap:butt;stroke-linejoin:miter;stroke-opacity:1" />
      <path
         style="fill:none;stroke:#000000;stroke-width:0.87994349px;stroke-linecap:butt;stroke-linejoin:miter;stroke-opacity:1"
         d="m 89.187312,116.73681 583.435778,0"
         id="path8764"
         inkscape:connector-curvature="0"
         inkscape:tile-cx="380.9052"
         inkscape:tile-cy="95.02824"
         inkscape:tile-w="583.43578"
         inkscape:tile-h="0"
         inkscape:tile-x0="89.187312"
         inkscape:tile-y0="95.02824" />
      <path
         inkscape:tile-y0="95.02824"
         inkscape:tile-x0="89.187312"
         inkscape:tile-h="0"
         inkscape:tile-w="583.43578"
         inkscape:tile-cy="95.02824"
         inkscape:tile-cx="380.9052"
         inkscape:connector-curvature="0"
         id="path8766"
         d="m 89.187312,107.66884 583.435778,0"
         style="fill:none;stroke:#000000;stroke-width:0.87994349px;stroke-linecap:butt;stroke-linejoin:miter;stroke-opacity:1" />
    </g>
    <path
       inkscape:export-ydpi="300"
       inkscape:export-xdpi="300"
       inkscape:export-filename="/home/ivan/Documents/FAKS/Musik T1/violinschluessel05.png"
       sodipodi:nodetypes="czzzzczzc"
       inkscape:connector-curvature="0"
       id="path8772"
       d="m 624.40843,749.62194 c -7.54589,-0.26545 -12.67091,-5.88105 -13.11778,-12.15686 -0.44686,-6.27581 3.72283,-14.83909 13.25918,-15.00454 9.53635,-0.16546 19.2597,1.87865 20.14431,15.98773 0.88462,14.10908 -8.77489,18.21727 -17.30626,18.34843 -8.53137,0.13116 -24.40414,-3.35409 -24.44253,-19.67796 -0.0692,-11.19047 12.41934,-30.31835 18.2133,-37.65553 5.79396,-7.33718 11.93397,-22.27142 11.69912,-25.4423 -0.23485,-3.17088 1.77053,-13.71036 -5.08018,-18.79133"
       style="fill:none;stroke:#000000;stroke-width:1px;stroke-linecap:butt;stroke-linejoin:miter;stroke-opacity:1;marker-end:url(#Arrow1Mend)" />
    <path
       style="fill:none;stroke:#000000;stroke-width:1px;stroke-linecap:butt;stroke-linejoin:miter;stroke-opacity:1;marker-end:url(#Arrow1Mend)"
       d="m 561.6028,749.62194 c -7.54589,-0.26545 -12.67091,-5.88105 -13.11778,-12.15686 -0.44686,-6.27581 3.72283,-14.83909 13.25918,-15.00454 9.53635,-0.16546 19.2597,1.87865 20.14431,15.98773 0.88462,14.10908 -8.77489,18.21727 -17.30626,18.34843 -8.53137,0.13116 -24.40414,-3.35409 -24.44253,-19.67796 -0.0692,-11.19047 12.41934,-30.31835 18.2133,-37.65553 5.79396,-7.33718 11.93397,-22.27142 11.69912,-25.4423 -0.23485,-3.17088 1.77053,-13.71036 -5.08018,-18.79133"
       id="path8778"
       inkscape:connector-curvature="0"
       sodipodi:nodetypes="czzzzczzc"
       inkscape:export-filename="/home/ivan/Documents/FAKS/Musik T1/violinschluessel05.png"
       inkscape:export-xdpi="300"
       inkscape:export-ydpi="300" />
    <path
       inkscape:export-ydpi="300"
       inkscape:export-xdpi="300"
       inkscape:export-filename="/home/ivan/Documents/FAKS/Musik T1/violinschluessel05.png"
       sodipodi:nodetypes="czzzzczzc"
       inkscape:connector-curvature="0"
       id="path8780"
       d="m 498.79716,749.62194 c -7.54589,-0.26545 -12.67091,-5.88105 -13.11778,-12.15686 -0.44686,-6.27581 3.72283,-14.83909 13.25918,-15.00454 9.53635,-0.16546 19.2597,1.87865 20.14431,15.98773 0.88462,14.10908 -8.77489,18.21727 -17.30626,18.34843 -8.53137,0.13116 -24.40414,-3.35409 -24.44253,-19.67796 -0.0692,-11.19047 12.41934,-30.31835 18.2133,-37.65553 5.79396,-7.33718 11.93397,-22.27142 11.69912,-25.4423 -0.23485,-3.17088 1.77053,-13.71036 -5.08018,-18.79133"
       style="fill:none;stroke:#000000;stroke-width:1px;stroke-linecap:butt;stroke-linejoin:miter;stroke-opacity:1;marker-end:url(#Arrow1Mend)" />
    <path
       style="fill:none;stroke:#000000;stroke-width:1px;stroke-linecap:butt;stroke-linejoin:miter;stroke-opacity:1;marker-end:url(#Arrow1Mend)"
       d="m 435.99153,749.62194 c -7.54589,-0.26545 -12.67091,-5.88105 -13.11778,-12.15686 -0.44686,-6.27581 3.72283,-14.83909 13.25918,-15.00454 9.53635,-0.16546 19.2597,1.87865 20.14431,15.98773 0.88462,14.10908 -8.77489,18.21727 -17.30626,18.34843 -8.53137,0.13116 -24.40414,-3.35409 -24.44253,-19.67796 -0.0692,-11.19047 12.41934,-30.31835 18.2133,-37.65553 5.79396,-7.33718 11.93397,-22.27142 11.69912,-25.4423 -0.23485,-3.17088 1.77053,-13.71036 -5.08018,-18.79133"
       id="path8782"
       inkscape:connector-curvature="0"
       sodipodi:nodetypes="czzzzczzc"
       inkscape:export-filename="/home/ivan/Documents/FAKS/Musik T1/violinschluessel05.png"
       inkscape:export-xdpi="300"
       inkscape:export-ydpi="300" />
    <path
       inkscape:export-ydpi="300"
       inkscape:export-xdpi="300"
       inkscape:export-filename="/home/ivan/Documents/FAKS/Musik T1/violinschluessel05.png"
       sodipodi:nodetypes="czzzzczzc"
       inkscape:connector-curvature="0"
       id="path8784"
       d="m 373.1859,749.62194 c -7.54589,-0.26545 -12.67091,-5.88105 -13.11778,-12.15686 -0.44686,-6.27581 3.72283,-14.83909 13.25918,-15.00454 9.53635,-0.16546 19.2597,1.87865 20.14431,15.98773 0.88462,14.10908 -8.77489,18.21727 -17.30626,18.34843 -8.53137,0.13116 -24.40414,-3.35409 -24.44253,-19.67796 -0.0692,-11.19047 12.41934,-30.31835 18.2133,-37.65553 5.79396,-7.33718 11.93397,-22.27142 11.69912,-25.4423 -0.23485,-3.17088 1.77053,-13.71036 -5.08018,-18.79133"
       style="fill:none;stroke:#000000;stroke-width:1px;stroke-linecap:butt;stroke-linejoin:miter;stroke-opacity:1;marker-end:url(#Arrow1Mend)" />
    <path
       style="fill:none;stroke:#000000;stroke-width:1px;stroke-linecap:butt;stroke-linejoin:miter;stroke-opacity:1;marker-end:url(#Arrow1Mend)"
       d="m 310.38027,749.62194 c -7.54589,-0.26545 -12.67091,-5.88105 -13.11778,-12.15686 -0.44686,-6.27581 3.72283,-14.83909 13.25918,-15.00454 9.53635,-0.16546 19.2597,1.87865 20.14431,15.98773 0.88462,14.10908 -8.77489,18.21727 -17.30626,18.34843 -8.53137,0.13116 -24.40414,-3.35409 -24.44253,-19.67796 -0.0692,-11.19047 12.41934,-30.31835 18.2133,-37.65553 5.79396,-7.33718 11.93397,-22.27142 11.69912,-25.4423 -0.23485,-3.17088 1.77053,-13.71036 -5.08018,-18.79133"
       id="path8786"
       inkscape:connector-curvature="0"
       sodipodi:nodetypes="czzzzczzc"
       inkscape:export-filename="/home/ivan/Documents/FAKS/Musik T1/violinschluessel05.png"
       inkscape:export-xdpi="300"
       inkscape:export-ydpi="300" />
    <path
       inkscape:export-ydpi="300"
       inkscape:export-xdpi="300"
       inkscape:export-filename="/home/ivan/Documents/FAKS/Musik T1/violinschluessel05.png"
       sodipodi:nodetypes="czzzzczzc"
       inkscape:connector-curvature="0"
       id="path8788"
       d="m 247.57463,749.62194 c -7.54589,-0.26545 -12.67091,-5.88105 -13.11778,-12.15686 -0.44686,-6.27581 3.72283,-14.83909 13.25918,-15.00454 9.53635,-0.16546 19.2597,1.87865 20.14431,15.98773 0.88462,14.10908 -8.77489,18.21727 -17.30626,18.34843 -8.53137,0.13116 -24.40414,-3.35409 -24.44253,-19.67796 -0.0692,-11.19047 12.41934,-30.31835 18.2133,-37.65553 5.79396,-7.33718 11.93397,-22.27142 11.69912,-25.4423 -0.23485,-3.17088 1.77053,-13.71036 -5.08018,-18.79133"
       style="fill:none;stroke:#000000;stroke-width:1px;stroke-linecap:butt;stroke-linejoin:miter;stroke-opacity:1;marker-end:url(#Arrow1Mend)" />
    <path
       style="fill:none;stroke:#000000;stroke-width:1px;stroke-linecap:butt;stroke-linejoin:miter;stroke-opacity:1;marker-end:url(#Arrow1Mend)"
       d="m 184.769,749.62194 c -7.54589,-0.26545 -12.67091,-5.88105 -13.11778,-12.15686 -0.44686,-6.27581 3.72283,-14.83909 13.25918,-15.00454 9.53635,-0.16546 19.2597,1.87865 20.14431,15.98773 0.88462,14.10908 -8.77489,18.21727 -17.30626,18.34843 -8.53137,0.13116 -24.40414,-3.35409 -24.44253,-19.67796 -0.0692,-11.19047 12.41934,-30.31835 18.2133,-37.65553 5.79396,-7.33718 11.93397,-22.27142 11.69912,-25.4423 -0.23485,-3.17088 1.77053,-13.71036 -5.08018,-18.79133"
       id="path8790"
       inkscape:connector-curvature="0"
       sodipodi:nodetypes="czzzzczzc"
       inkscape:export-filename="/home/ivan/Documents/FAKS/Musik T1/violinschluessel05.png"
       inkscape:export-xdpi="300"
       inkscape:export-ydpi="300" />
    <path
       inkscape:export-ydpi="300"
       inkscape:export-xdpi="300"
       inkscape:export-filename="/home/ivan/Documents/FAKS/Musik T1/violinschluessel05.png"
       sodipodi:nodetypes="czzzzczzc"
       inkscape:connector-curvature="0"
       id="path8792"
       d="m 121.96337,749.62194 c -7.54589,-0.26545 -12.67091,-5.88105 -13.11778,-12.15686 -0.44686,-6.27581 3.72283,-14.83909 13.25918,-15.00454 9.53635,-0.16546 19.2597,1.87865 20.14431,15.98773 0.88462,14.10908 -8.77489,18.21727 -17.30626,18.34843 -8.53137,0.13116 -24.40414,-3.35409 -24.44253,-19.67796 -0.0692,-11.19047 12.41934,-30.31835 18.2133,-37.65553 5.79396,-7.33718 11.93397,-22.27142 11.69912,-25.4423 -0.23485,-3.17088 1.77053,-13.71036 -5.08018,-18.79133"
       style="fill:none;stroke:#000000;stroke-width:1px;stroke-linecap:butt;stroke-linejoin:miter;stroke-opacity:1;marker-end:url(#Arrow1Mend)" />
    <g
       inkscape:export-ydpi="300"
       inkscape:export-xdpi="300"
       inkscape:export-filename="/home/ivan/Documents/FAKS/Musik T1/violinschluessel06.png"
       transform="matrix(0.97788786,0,0,2.0132004,9.2338159,606.60563)"
       id="g8794">
      <path
         inkscape:tile-y0="95.02824"
         inkscape:tile-x0="89.187312"
         inkscape:tile-h="0"
         inkscape:tile-w="583.43578"
         inkscape:tile-cy="95.02824"
         inkscape:tile-cx="380.9052"
         inkscape:connector-curvature="0"
         id="path8796"
         d="m 89.187312,143.94072 583.435778,0"
         style="fill:none;stroke:#000000;stroke-width:0.875292px;stroke-linecap:butt;stroke-linejoin:miter;stroke-opacity:1" />
      <path
         style="fill:none;stroke:#000000;stroke-width:0.875292px;stroke-linecap:butt;stroke-linejoin:miter;stroke-opacity:1"
         d="m 89.187312,134.87275 583.435778,0"
         id="path8798"
         inkscape:connector-curvature="0"
         inkscape:tile-cx="380.9052"
         inkscape:tile-cy="95.02824"
         inkscape:tile-w="583.43578"
         inkscape:tile-h="0"
         inkscape:tile-x0="89.187312"
         inkscape:tile-y0="95.02824" />
      <path
         inkscape:tile-y0="95.02824"
         inkscape:tile-x0="89.187312"
         inkscape:tile-h="0"
         inkscape:tile-w="583.43578"
         inkscape:tile-cy="95.02824"
         inkscape:tile-cx="380.9052"
         inkscape:connector-curvature="0"
         id="path8800"
         d="m 89.187312,125.80478 583.435778,0"
         style="fill:none;stroke:#000000;stroke-width:0.875292px;stroke-linecap:butt;stroke-linejoin:miter;stroke-opacity:1" />
      <path
         style="fill:none;stroke:#000000;stroke-width:0.875292px;stroke-linecap:butt;stroke-linejoin:miter;stroke-opacity:1"
         d="m 89.187312,116.73681 583.435778,0"
         id="path8802"
         inkscape:connector-curvature="0"
         inkscape:tile-cx="380.9052"
         inkscape:tile-cy="95.02824"
         inkscape:tile-w="583.43578"
         inkscape:tile-h="0"
         inkscape:tile-x0="89.187312"
         inkscape:tile-y0="95.02824" />
      <path
         inkscape:tile-y0="95.02824"
         inkscape:tile-x0="89.187312"
         inkscape:tile-h="0"
         inkscape:tile-w="583.43578"
         inkscape:tile-cy="95.02824"
         inkscape:tile-cx="380.9052"
         inkscape:connector-curvature="0"
         id="path8804"
         d="m 89.187312,107.66884 583.435778,0"
         style="fill:none;stroke:#000000;stroke-width:0.875292px;stroke-linecap:butt;stroke-linejoin:miter;stroke-opacity:1" />
    </g>
    <path
       inkscape:export-ydpi="300"
       inkscape:export-xdpi="300"
       inkscape:export-filename="/home/ivan/Documents/FAKS/Musik T1/violinschluessel06.png"
       style="fill:none;stroke:#000000;stroke-width:1px;stroke-linecap:butt;stroke-linejoin:miter;stroke-opacity:1;marker-end:url(#Arrow1Mend)"
       d="m 642.69034,888.46131 c -7.54589,-0.26545 -12.67091,-5.88105 -13.11778,-12.15686 -0.44686,-6.27581 3.72283,-14.83909 13.25918,-15.00454 9.53635,-0.16546 19.2597,1.87865 20.14431,15.98773 0.88462,14.10908 -8.77489,18.21727 -17.30626,18.34843 -8.53137,0.13116 -24.40414,-3.35409 -24.44253,-19.67796"
       id="path8812"
       inkscape:connector-curvature="0"
       sodipodi:nodetypes="czzzzc" />
    <path
       sodipodi:nodetypes="czzzzc"
       inkscape:connector-curvature="0"
       id="path8816"
       d="m 578.14911,888.46131 c -7.54589,-0.26545 -12.67091,-5.88105 -13.11778,-12.15686 -0.44686,-6.27581 3.72283,-14.83909 13.25918,-15.00454 9.53635,-0.16546 19.2597,1.87865 20.14431,15.98773 0.88462,14.10908 -8.77489,18.21727 -17.30626,18.34843 -8.53137,0.13116 -24.40414,-3.35409 -24.44253,-19.67796"
       style="fill:none;stroke:#000000;stroke-width:1px;stroke-linecap:butt;stroke-linejoin:miter;stroke-opacity:1;marker-end:url(#Arrow1Mend)"
       inkscape:export-filename="/home/ivan/Documents/FAKS/Musik T1/violinschluessel06.png"
       inkscape:export-xdpi="300"
       inkscape:export-ydpi="300" />
    <path
       inkscape:export-ydpi="300"
       inkscape:export-xdpi="300"
       inkscape:export-filename="/home/ivan/Documents/FAKS/Musik T1/violinschluessel06.png"
       style="fill:none;stroke:#000000;stroke-width:1px;stroke-linecap:butt;stroke-linejoin:miter;stroke-opacity:1;marker-end:url(#Arrow1Mend)"
       d="m 513.60788,888.46131 c -7.54589,-0.26545 -12.67091,-5.88105 -13.11778,-12.15686 -0.44686,-6.27581 3.72283,-14.83909 13.25918,-15.00454 9.53635,-0.16546 19.2597,1.87865 20.14431,15.98773 0.88462,14.10908 -8.77489,18.21727 -17.30626,18.34843 -8.53137,0.13116 -24.40414,-3.35409 -24.44253,-19.67796"
       id="path8818"
       inkscape:connector-curvature="0"
       sodipodi:nodetypes="czzzzc" />
    <path
       sodipodi:nodetypes="czzzzc"
       inkscape:connector-curvature="0"
       id="path8820"
       d="m 449.06665,888.46131 c -7.54589,-0.26545 -12.67091,-5.88105 -13.11778,-12.15686 -0.44686,-6.27581 3.72283,-14.83909 13.25918,-15.00454 9.53635,-0.16546 19.2597,1.87865 20.14431,15.98773 0.88462,14.10908 -8.77489,18.21727 -17.30626,18.34843 -8.53137,0.13116 -24.40414,-3.35409 -24.44253,-19.67796"
       style="fill:none;stroke:#000000;stroke-width:1px;stroke-linecap:butt;stroke-linejoin:miter;stroke-opacity:1;marker-end:url(#Arrow1Mend)"
       inkscape:export-filename="/home/ivan/Documents/FAKS/Musik T1/violinschluessel06.png"
       inkscape:export-xdpi="300"
       inkscape:export-ydpi="300" />
    <path
       inkscape:export-ydpi="300"
       inkscape:export-xdpi="300"
       inkscape:export-filename="/home/ivan/Documents/FAKS/Musik T1/violinschluessel06.png"
       style="fill:none;stroke:#000000;stroke-width:1px;stroke-linecap:butt;stroke-linejoin:miter;stroke-opacity:1;marker-end:url(#Arrow1Mend)"
       d="m 384.52542,888.46131 c -7.54589,-0.26545 -12.67091,-5.88105 -13.11778,-12.15686 -0.44686,-6.27581 3.72283,-14.83909 13.25918,-15.00454 9.53635,-0.16546 19.2597,1.87865 20.14431,15.98773 0.88462,14.10908 -8.77489,18.21727 -17.30626,18.34843 -8.53137,0.13116 -24.40414,-3.35409 -24.44253,-19.67796"
       id="path8822"
       inkscape:connector-curvature="0"
       sodipodi:nodetypes="czzzzc" />
    <path
       sodipodi:nodetypes="czzzzc"
       inkscape:connector-curvature="0"
       id="path8824"
       d="m 319.98419,888.46131 c -7.54589,-0.26545 -12.67091,-5.88105 -13.11778,-12.15686 -0.44686,-6.27581 3.72283,-14.83909 13.25918,-15.00454 9.53635,-0.16546 19.2597,1.87865 20.14431,15.98773 0.88462,14.10908 -8.77489,18.21727 -17.30626,18.34843 -8.53137,0.13116 -24.40414,-3.35409 -24.44253,-19.67796"
       style="fill:none;stroke:#000000;stroke-width:1px;stroke-linecap:butt;stroke-linejoin:miter;stroke-opacity:1;marker-end:url(#Arrow1Mend)"
       inkscape:export-filename="/home/ivan/Documents/FAKS/Musik T1/violinschluessel06.png"
       inkscape:export-xdpi="300"
       inkscape:export-ydpi="300" />
    <path
       inkscape:export-ydpi="300"
       inkscape:export-xdpi="300"
       inkscape:export-filename="/home/ivan/Documents/FAKS/Musik T1/violinschluessel06.png"
       style="fill:none;stroke:#000000;stroke-width:1px;stroke-linecap:butt;stroke-linejoin:miter;stroke-opacity:1;marker-end:url(#Arrow1Mend)"
       d="m 255.44296,888.46131 c -7.54589,-0.26545 -12.67091,-5.88105 -13.11778,-12.15686 -0.44686,-6.27581 3.72283,-14.83909 13.25918,-15.00454 9.53635,-0.16546 19.2597,1.87865 20.14431,15.98773 0.88462,14.10908 -8.77489,18.21727 -17.30626,18.34843 -8.53137,0.13116 -24.40414,-3.35409 -24.44253,-19.67796"
       id="path8826"
       inkscape:connector-curvature="0"
       sodipodi:nodetypes="czzzzc" />
    <path
       sodipodi:nodetypes="czzzzc"
       inkscape:connector-curvature="0"
       id="path8828"
       d="m 190.90173,888.46131 c -7.54589,-0.26545 -12.67091,-5.88105 -13.11778,-12.15686 -0.44686,-6.27581 3.72283,-14.83909 13.25918,-15.00454 9.53635,-0.16546 19.2597,1.87865 20.14431,15.98773 0.88462,14.10908 -8.77489,18.21727 -17.30626,18.34843 -8.53137,0.13116 -24.40414,-3.35409 -24.44253,-19.67796"
       style="fill:none;stroke:#000000;stroke-width:1px;stroke-linecap:butt;stroke-linejoin:miter;stroke-opacity:1;marker-end:url(#Arrow1Mend)"
       inkscape:export-filename="/home/ivan/Documents/FAKS/Musik T1/violinschluessel06.png"
       inkscape:export-xdpi="300"
       inkscape:export-ydpi="300" />
    <path
       inkscape:export-ydpi="300"
       inkscape:export-xdpi="300"
       inkscape:export-filename="/home/ivan/Documents/FAKS/Musik T1/violinschluessel06.png"
       style="fill:none;stroke:#000000;stroke-width:1px;stroke-linecap:butt;stroke-linejoin:miter;stroke-opacity:1;marker-end:url(#Arrow1Mend)"
       d="m 126.3605,888.46131 c -7.54589,-0.26545 -12.67091,-5.88105 -13.11778,-12.15686 -0.44686,-6.27581 3.72283,-14.83909 13.25918,-15.00454 9.53635,-0.16546 19.2597,1.87865 20.14431,15.98773 0.88462,14.10908 -8.77489,18.21727 -17.30626,18.34843 -8.53137,0.13116 -24.40414,-3.35409 -24.44253,-19.67796"
       id="path8830"
       inkscape:connector-curvature="0"
       sodipodi:nodetypes="czzzzc" />
    <path
       style="fill:none;stroke:#000000;stroke-width:0.99999356px;stroke-linecap:butt;stroke-linejoin:miter;stroke-opacity:1"
       d="m 542.56485,470.53124 c -6.96839,-0.26545 -11.7012,-5.88105 -12.11396,-12.15686 -0.41261,-6.27581 3.43805,-14.83909 12.24443,-15.00454 8.80668,-0.16546 17.78596,1.87865 18.6028,15.98773 0.81674,14.10914 -8.10336,18.21733 -15.98185,18.34849 -7.87846,0.13116 -22.5365,-3.35409 -22.57193,-19.67802 -0.0692,-11.19047 11.4689,-30.31835 16.81945,-37.65553 5.35052,-7.33712 11.02065,-22.27136 10.80381,-25.44224 -0.21689,-3.17088 1.63486,-13.71036 -4.69151,-18.79133 -4.03479,2.16036 -7.90353,17.03439 -6.96181,26.9411 0.94165,9.90671 2.47146,20.23898 3.7671,29.30348 0.68742,9.78283 2.84107,18.91299 3.74046,24.10409 0.89937,5.1911 0.53861,4.38641 2.38232,12.92892 1.84386,8.54257 4.23776,17.60903 4.04415,25.90896 -0.12526,5.37656 -4.5003,9.31414 -9.30586,8.97423 -4.99924,-0.39174 -7.27599,-6.28344 -2.28367,-9.90306"
       id="path8832"
       inkscape:connector-curvature="0"
       sodipodi:nodetypes="czzzzczzczczzscc"
       inkscape:export-filename="/home/ivan/Documents/FAKS/Musik T1/violinschluessel03.png"
       inkscape:export-xdpi="300"
       inkscape:export-ydpi="300" />
    <path
       inkscape:export-ydpi="300"
       inkscape:export-xdpi="300"
       inkscape:export-filename="/home/ivan/Documents/FAKS/Musik T1/violinschluessel03.png"
       sodipodi:nodetypes="czzzzczzczczzscc"
       inkscape:connector-curvature="0"
       id="path8834"
       d="m 482.95856,470.53124 c -6.96839,-0.26545 -11.7012,-5.88105 -12.11396,-12.15686 -0.41261,-6.27581 3.43805,-14.83909 12.24443,-15.00454 8.80668,-0.16546 17.78596,1.87865 18.6028,15.98773 0.81674,14.10914 -8.10336,18.21733 -15.98185,18.34849 -7.87846,0.13116 -22.5365,-3.35409 -22.57193,-19.67802 -0.0692,-11.19047 11.4689,-30.31835 16.81945,-37.65553 5.35052,-7.33712 11.02065,-22.27136 10.80381,-25.44224 -0.21689,-3.17088 1.63486,-13.71036 -4.69151,-18.79133 -4.03479,2.16036 -7.90353,17.03439 -6.96181,26.9411 0.94165,9.90671 2.47146,20.23898 3.7671,29.30348 0.68742,9.78283 2.84107,18.91299 3.74046,24.10409 0.89937,5.1911 0.53861,4.38641 2.38232,12.92892 1.84386,8.54257 4.23776,17.60903 4.04415,25.90896 -0.12526,5.37656 -4.5003,9.31414 -9.30586,8.97423 -4.99924,-0.39174 -7.27599,-6.28344 -2.28367,-9.90306"
       style="fill:none;stroke:#000000;stroke-width:0.99999356px;stroke-linecap:butt;stroke-linejoin:miter;stroke-opacity:1" />
    <path
       style="fill:none;stroke:#000000;stroke-width:0.99999356px;stroke-linecap:butt;stroke-linejoin:miter;stroke-opacity:1"
       d="m 423.35227,470.53124 c -6.96839,-0.26545 -11.7012,-5.88105 -12.11396,-12.15686 -0.41261,-6.27581 3.43805,-14.83909 12.24443,-15.00454 8.80668,-0.16546 17.78596,1.87865 18.6028,15.98773 0.81674,14.10914 -8.10336,18.21733 -15.98185,18.34849 -7.87846,0.13116 -22.5365,-3.35409 -22.57193,-19.67802 -0.0692,-11.19047 11.4689,-30.31835 16.81945,-37.65553 5.35052,-7.33712 11.02065,-22.27136 10.80381,-25.44224 -0.21689,-3.17088 1.63486,-13.71036 -4.69151,-18.79133 -4.03479,2.16036 -7.90353,17.03439 -6.96181,26.9411 0.94165,9.90671 2.47146,20.23898 3.7671,29.30348 0.68742,9.78283 2.84107,18.91299 3.74046,24.10409 0.89937,5.1911 0.53861,4.38641 2.38232,12.92892 1.84386,8.54257 4.23776,17.60903 4.04415,25.90896 -0.12526,5.37656 -4.5003,9.31414 -9.30586,8.97423 -4.99924,-0.39174 -7.27599,-6.28344 -2.28367,-9.90306"
       id="path8836"
       inkscape:connector-curvature="0"
       sodipodi:nodetypes="czzzzczzczczzscc"
       inkscape:export-filename="/home/ivan/Documents/FAKS/Musik T1/violinschluessel03.png"
       inkscape:export-xdpi="300"
       inkscape:export-ydpi="300" />
    <path
       inkscape:export-ydpi="300"
       inkscape:export-xdpi="300"
       inkscape:export-filename="/home/ivan/Documents/FAKS/Musik T1/violinschluessel03.png"
       sodipodi:nodetypes="czzzzczzczczzscc"
       inkscape:connector-curvature="0"
       id="path8838"
       d="m 363.74598,470.53124 c -6.96839,-0.26545 -11.7012,-5.88105 -12.11396,-12.15686 -0.41261,-6.27581 3.43805,-14.83909 12.24443,-15.00454 8.80668,-0.16546 17.78596,1.87865 18.6028,15.98773 0.81674,14.10914 -8.10336,18.21733 -15.98185,18.34849 -7.87846,0.13116 -22.5365,-3.35409 -22.57193,-19.67802 -0.0692,-11.19047 11.4689,-30.31835 16.81945,-37.65553 5.35052,-7.33712 11.02065,-22.27136 10.80381,-25.44224 -0.21689,-3.17088 1.63486,-13.71036 -4.69151,-18.79133 -4.03479,2.16036 -7.90353,17.03439 -6.96181,26.9411 0.94165,9.90671 2.47146,20.23898 3.7671,29.30348 0.68742,9.78283 2.84107,18.91299 3.74046,24.10409 0.89937,5.1911 0.53861,4.38641 2.38232,12.92892 1.84386,8.54257 4.23776,17.60903 4.04415,25.90896 -0.12526,5.37656 -4.5003,9.31414 -9.30586,8.97423 -4.99924,-0.39174 -7.27599,-6.28344 -2.28367,-9.90306"
       style="fill:none;stroke:#000000;stroke-width:0.99999356px;stroke-linecap:butt;stroke-linejoin:miter;stroke-opacity:1" />
    <path
       style="fill:none;stroke:#000000;stroke-width:0.99999356px;stroke-linecap:butt;stroke-linejoin:miter;stroke-opacity:1"
       d="m 304.13969,470.53124 c -6.96839,-0.26545 -11.7012,-5.88105 -12.11396,-12.15686 -0.41261,-6.27581 3.43805,-14.83909 12.24443,-15.00454 8.80668,-0.16546 17.78596,1.87865 18.6028,15.98773 0.81674,14.10914 -8.10336,18.21733 -15.98185,18.34849 -7.87846,0.13116 -22.5365,-3.35409 -22.57193,-19.67802 -0.0692,-11.19047 11.4689,-30.31835 16.81945,-37.65553 5.35052,-7.33712 11.02065,-22.27136 10.80381,-25.44224 -0.21689,-3.17088 1.63486,-13.71036 -4.69151,-18.79133 -4.03479,2.16036 -7.90353,17.03439 -6.96181,26.9411 0.94165,9.90671 2.47146,20.23898 3.7671,29.30348 0.68742,9.78283 2.84107,18.91299 3.74046,24.10409 0.89937,5.1911 0.53861,4.38641 2.38232,12.92892 1.84386,8.54257 4.23776,17.60903 4.04415,25.90896 -0.12526,5.37656 -4.5003,9.31414 -9.30586,8.97423 -4.99924,-0.39174 -7.27599,-6.28344 -2.28367,-9.90306"
       id="path8840"
       inkscape:connector-curvature="0"
       sodipodi:nodetypes="czzzzczzczczzscc"
       inkscape:export-filename="/home/ivan/Documents/FAKS/Musik T1/violinschluessel03.png"
       inkscape:export-xdpi="300"
       inkscape:export-ydpi="300" />
    <path
       inkscape:export-ydpi="300"
       inkscape:export-xdpi="300"
       inkscape:export-filename="/home/ivan/Documents/FAKS/Musik T1/violinschluessel03.png"
       sodipodi:nodetypes="czzzzczzczczzscc"
       inkscape:connector-curvature="0"
       id="path8842"
       d="m 244.5334,470.53124 c -6.96839,-0.26545 -11.7012,-5.88105 -12.11396,-12.15686 -0.41261,-6.27581 3.43805,-14.83909 12.24443,-15.00454 8.80668,-0.16546 17.78596,1.87865 18.6028,15.98773 0.81674,14.10914 -8.10336,18.21733 -15.98185,18.34849 -7.87846,0.13116 -22.5365,-3.35409 -22.57193,-19.67802 -0.0692,-11.19047 11.4689,-30.31835 16.81945,-37.65553 5.35052,-7.33712 11.02065,-22.27136 10.80381,-25.44224 -0.21689,-3.17088 1.63486,-13.71036 -4.69151,-18.79133 -4.03479,2.16036 -7.90353,17.03439 -6.96181,26.9411 0.94165,9.90671 2.47146,20.23898 3.7671,29.30348 0.68742,9.78283 2.84107,18.91299 3.74046,24.10409 0.89937,5.1911 0.53861,4.38641 2.38232,12.92892 1.84386,8.54257 4.23776,17.60903 4.04415,25.90896 -0.12526,5.37656 -4.5003,9.31414 -9.30586,8.97423 -4.99924,-0.39174 -7.27599,-6.28344 -2.28367,-9.90306"
       style="fill:none;stroke:#000000;stroke-width:0.99999356px;stroke-linecap:butt;stroke-linejoin:miter;stroke-opacity:1" />
    <path
       style="fill:none;stroke:#000000;stroke-width:0.99999356px;stroke-linecap:butt;stroke-linejoin:miter;stroke-opacity:1"
       d="m 184.92711,470.53124 c -6.96839,-0.26545 -11.7012,-5.88105 -12.11396,-12.15686 -0.41261,-6.27581 3.43805,-14.83909 12.24443,-15.00454 8.80668,-0.16546 17.78596,1.87865 18.6028,15.98773 0.81674,14.10914 -8.10336,18.21733 -15.98185,18.34849 -7.87846,0.13116 -22.5365,-3.35409 -22.57193,-19.67802 -0.0692,-11.19047 11.4689,-30.31835 16.81945,-37.65553 5.35052,-7.33712 11.02065,-22.27136 10.80381,-25.44224 -0.21689,-3.17088 1.63486,-13.71036 -4.69151,-18.79133 -4.03479,2.16036 -7.90353,17.03439 -6.96181,26.9411 0.94165,9.90671 2.47146,20.23898 3.7671,29.30348 0.68742,9.78283 2.84107,18.91299 3.74046,24.10409 0.89937,5.1911 0.53861,4.38641 2.38232,12.92892 1.84386,8.54257 4.23776,17.60903 4.04415,25.90896 -0.12526,5.37656 -4.5003,9.31414 -9.30586,8.97423 -4.99924,-0.39174 -7.27599,-6.28344 -2.28367,-9.90306"
       id="path8844"
       inkscape:connector-curvature="0"
       sodipodi:nodetypes="czzzzczzczczzscc"
       inkscape:export-filename="/home/ivan/Documents/FAKS/Musik T1/violinschluessel03.png"
       inkscape:export-xdpi="300"
       inkscape:export-ydpi="300" />
    <path
       inkscape:export-ydpi="300"
       inkscape:export-xdpi="300"
       inkscape:export-filename="/home/ivan/Documents/FAKS/Musik T1/violinschluessel03.png"
       sodipodi:nodetypes="czzzzczzczczzscc"
       inkscape:connector-curvature="0"
       id="path8846"
       d="m 125.32082,470.53124 c -6.96839,-0.26545 -11.7012,-5.88105 -12.11396,-12.15686 -0.41261,-6.27581 3.43805,-14.83909 12.24443,-15.00454 8.80668,-0.16546 17.78596,1.87865 18.6028,15.98773 0.81674,14.10914 -8.10336,18.21733 -15.98185,18.34849 -7.87846,0.13116 -22.5365,-3.35409 -22.57193,-19.67802 -0.0692,-11.19047 11.4689,-30.31835 16.81945,-37.65553 5.35052,-7.33712 11.02065,-22.27136 10.80381,-25.44224 -0.21689,-3.17088 1.63486,-13.71036 -4.69151,-18.79133 -4.03479,2.16036 -7.90353,17.03439 -6.96181,26.9411 0.94165,9.90671 2.47146,20.23898 3.7671,29.30348 0.68742,9.78283 2.84107,18.91299 3.74046,24.10409 0.89937,5.1911 0.53861,4.38641 2.38232,12.92892 1.84386,8.54257 4.23776,17.60903 4.04415,25.90896 -0.12526,5.37656 -4.5003,9.31414 -9.30586,8.97423 -4.99924,-0.39174 -7.27599,-6.28344 -2.28367,-9.90306"
       style="fill:none;stroke:#000000;stroke-width:0.99999356px;stroke-linecap:butt;stroke-linejoin:miter;stroke-opacity:1" />
    <g
       id="g3072"
       transform="matrix(0.97788786,0,0,2.0132004,39.416288,691.11655)"
       inkscape:export-filename="/home/ivan/Documents/FAKS/Musik T1/violinschluessel07.png"
       inkscape:export-xdpi="300"
       inkscape:export-ydpi="300">
      <path
         style="fill:none;stroke:#000000;stroke-width:0.875292px;stroke-linecap:butt;stroke-linejoin:miter;stroke-opacity:1"
         d="m 89.187312,143.94072 583.435778,0"
         id="path3074"
         inkscape:connector-curvature="0"
         inkscape:tile-cx="380.9052"
         inkscape:tile-cy="95.02824"
         inkscape:tile-w="583.43578"
         inkscape:tile-h="0"
         inkscape:tile-x0="89.187312"
         inkscape:tile-y0="95.02824" />
      <path
         inkscape:tile-y0="95.02824"
         inkscape:tile-x0="89.187312"
         inkscape:tile-h="0"
         inkscape:tile-w="583.43578"
         inkscape:tile-cy="95.02824"
         inkscape:tile-cx="380.9052"
         inkscape:connector-curvature="0"
         id="path3076"
         d="m 89.187312,134.87275 583.435778,0"
         style="fill:none;stroke:#000000;stroke-width:0.875292px;stroke-linecap:butt;stroke-linejoin:miter;stroke-opacity:1" />
      <path
         style="fill:none;stroke:#000000;stroke-width:0.875292px;stroke-linecap:butt;stroke-linejoin:miter;stroke-opacity:1"
         d="m 89.187312,125.80478 583.435778,0"
         id="path3078"
         inkscape:connector-curvature="0"
         inkscape:tile-cx="380.9052"
         inkscape:tile-cy="95.02824"
         inkscape:tile-w="583.43578"
         inkscape:tile-h="0"
         inkscape:tile-x0="89.187312"
         inkscape:tile-y0="95.02824" />
      <path
         inkscape:tile-y0="95.02824"
         inkscape:tile-x0="89.187312"
         inkscape:tile-h="0"
         inkscape:tile-w="583.43578"
         inkscape:tile-cy="95.02824"
         inkscape:tile-cx="380.9052"
         inkscape:connector-curvature="0"
         id="path3080"
         d="m 89.187312,116.73681 583.435778,0"
         style="fill:none;stroke:#000000;stroke-width:0.875292px;stroke-linecap:butt;stroke-linejoin:miter;stroke-opacity:1" />
      <path
         style="fill:none;stroke:#000000;stroke-width:0.875292px;stroke-linecap:butt;stroke-linejoin:miter;stroke-opacity:1"
         d="m 89.187312,107.66884 583.435778,0"
         id="path3082"
         inkscape:connector-curvature="0"
         inkscape:tile-cx="380.9052"
         inkscape:tile-cy="95.02824"
         inkscape:tile-w="583.43578"
         inkscape:tile-h="0"
         inkscape:tile-x0="89.187312"
         inkscape:tile-y0="95.02824" />
    </g>
    <path
       sodipodi:nodetypes="czzzzc"
       inkscape:connector-curvature="0"
       id="path3084"
       d="m 638.66601,1011.2034 c -7.54589,-0.2655 -12.67091,-5.8811 -13.11778,-12.1569 -0.44686,-6.27581 3.72283,-14.83909 13.25918,-15.00454 9.53635,-0.16546 19.2597,1.87865 20.14431,15.98774 0.88462,14.1091 -8.77489,18.2173 -17.30626,18.3484 -8.53137,0.1312 -24.40414,-3.3541 -24.44253,-19.67794"
       style="fill:none;stroke:#000000;stroke-width:1px;stroke-linecap:butt;stroke-linejoin:miter;stroke-opacity:1;marker-end:url(#Arrow1Mend)"
       inkscape:export-filename="/home/ivan/Documents/FAKS/Musik T1/violinschluessel06.png"
       inkscape:export-xdpi="300"
       inkscape:export-ydpi="300" />
    <path
       inkscape:export-ydpi="300"
       inkscape:export-xdpi="300"
       inkscape:export-filename="/home/ivan/Documents/FAKS/Musik T1/violinschluessel06.png"
       style="fill:none;stroke:#000000;stroke-width:1px;stroke-linecap:butt;stroke-linejoin:miter;stroke-opacity:1;marker-end:url(#Arrow1Mend)"
       d="m 574.12478,1011.2034 c -7.54589,-0.2655 -12.67091,-5.8811 -13.11778,-12.1569 -0.44686,-6.27581 3.72283,-14.83909 13.25918,-15.00454 9.53635,-0.16546 19.2597,1.87865 20.14431,15.98774 0.88462,14.1091 -8.77489,18.2173 -17.30626,18.3484 -8.53137,0.1312 -24.40414,-3.3541 -24.44253,-19.67794"
       id="path3086"
       inkscape:connector-curvature="0"
       sodipodi:nodetypes="czzzzc" />
    <path
       sodipodi:nodetypes="czzzzc"
       inkscape:connector-curvature="0"
       id="path3088"
       d="m 509.58355,1011.2034 c -7.54589,-0.2655 -12.67091,-5.8811 -13.11778,-12.1569 -0.44686,-6.27581 3.72283,-14.83909 13.25918,-15.00454 9.53635,-0.16546 19.2597,1.87865 20.14431,15.98774 0.88462,14.1091 -8.77489,18.2173 -17.30626,18.3484 -8.53137,0.1312 -24.40414,-3.3541 -24.44253,-19.67794"
       style="fill:none;stroke:#000000;stroke-width:1px;stroke-linecap:butt;stroke-linejoin:miter;stroke-opacity:1;marker-end:url(#Arrow1Mend)"
       inkscape:export-filename="/home/ivan/Documents/FAKS/Musik T1/violinschluessel06.png"
       inkscape:export-xdpi="300"
       inkscape:export-ydpi="300" />
    <path
       inkscape:export-ydpi="300"
       inkscape:export-xdpi="300"
       inkscape:export-filename="/home/ivan/Documents/FAKS/Musik T1/violinschluessel06.png"
       style="fill:none;stroke:#000000;stroke-width:1px;stroke-linecap:butt;stroke-linejoin:miter;stroke-opacity:1;marker-end:url(#Arrow1Mend)"
       d="m 445.04232,1011.2034 c -7.54589,-0.2655 -12.67091,-5.8811 -13.11778,-12.1569 -0.44686,-6.27581 3.72283,-14.83909 13.25918,-15.00454 9.53635,-0.16546 19.2597,1.87865 20.14431,15.98774 0.88462,14.1091 -8.77489,18.2173 -17.30626,18.3484 -8.53137,0.1312 -24.40414,-3.3541 -24.44253,-19.67794"
       id="path3090"
       inkscape:connector-curvature="0"
       sodipodi:nodetypes="czzzzc" />
    <path
       sodipodi:nodetypes="czzzzc"
       inkscape:connector-curvature="0"
       id="path3092"
       d="m 380.50109,1011.2034 c -7.54589,-0.2655 -12.67091,-5.8811 -13.11778,-12.1569 -0.44686,-6.27581 3.72283,-14.83909 13.25918,-15.00454 9.53635,-0.16546 19.2597,1.87865 20.14431,15.98774 0.88462,14.1091 -8.77489,18.2173 -17.30626,18.3484 -8.53137,0.1312 -24.40414,-3.3541 -24.44253,-19.67794"
       style="fill:none;stroke:#000000;stroke-width:1px;stroke-linecap:butt;stroke-linejoin:miter;stroke-opacity:1;marker-end:url(#Arrow1Mend)"
       inkscape:export-filename="/home/ivan/Documents/FAKS/Musik T1/violinschluessel06.png"
       inkscape:export-xdpi="300"
       inkscape:export-ydpi="300" />
    <path
       inkscape:export-ydpi="300"
       inkscape:export-xdpi="300"
       inkscape:export-filename="/home/ivan/Documents/FAKS/Musik T1/violinschluessel06.png"
       style="fill:none;stroke:#000000;stroke-width:1px;stroke-linecap:butt;stroke-linejoin:miter;stroke-opacity:1;marker-end:url(#Arrow1Mend)"
       d="m 315.95986,1011.2034 c -7.54589,-0.2655 -12.67091,-5.8811 -13.11778,-12.1569 -0.44686,-6.27581 3.72283,-14.83909 13.25918,-15.00454 9.53635,-0.16546 19.2597,1.87865 20.14431,15.98774 0.88462,14.1091 -8.77489,18.2173 -17.30626,18.3484 -8.53137,0.1312 -24.40414,-3.3541 -24.44253,-19.67794"
       id="path3094"
       inkscape:connector-curvature="0"
       sodipodi:nodetypes="czzzzc" />
    <path
       sodipodi:nodetypes="czzzzc"
       inkscape:connector-curvature="0"
       id="path3096"
       d="m 251.41863,1011.2034 c -7.54589,-0.2655 -12.67091,-5.8811 -13.11778,-12.1569 -0.44686,-6.27581 3.72283,-14.83909 13.25918,-15.00454 9.53635,-0.16546 19.2597,1.87865 20.14431,15.98774 0.88462,14.1091 -8.77489,18.2173 -17.30626,18.3484 -8.53137,0.1312 -24.40414,-3.3541 -24.44253,-19.67794"
       style="fill:none;stroke:#000000;stroke-width:1px;stroke-linecap:butt;stroke-linejoin:miter;stroke-opacity:1;marker-end:url(#Arrow1Mend)"
       inkscape:export-filename="/home/ivan/Documents/FAKS/Musik T1/violinschluessel06.png"
       inkscape:export-xdpi="300"
       inkscape:export-ydpi="300" />
    <path
       inkscape:export-ydpi="300"
       inkscape:export-xdpi="300"
       inkscape:export-filename="/home/ivan/Documents/FAKS/Musik T1/violinschluessel06.png"
       style="fill:none;stroke:#000000;stroke-width:1px;stroke-linecap:butt;stroke-linejoin:miter;stroke-opacity:1;marker-end:url(#Arrow1Mend)"
       d="m 186.8774,1011.2034 c -7.54589,-0.2655 -12.67091,-5.8811 -13.11778,-12.1569 -0.44686,-6.27581 3.72283,-14.83909 13.25918,-15.00454 9.53635,-0.16546 19.2597,1.87865 20.14431,15.98774 0.88462,14.1091 -8.77489,18.2173 -17.30626,18.3484 -8.53137,0.1312 -24.40414,-3.3541 -24.44253,-19.67794"
       id="path3098"
       inkscape:connector-curvature="0"
       sodipodi:nodetypes="czzzzc" />
    <path
       sodipodi:nodetypes="czzzzc"
       inkscape:connector-curvature="0"
       id="path3100"
       d="m 122.33617,1011.2034 c -7.54589,-0.2655 -12.67091,-5.8811 -13.11778,-12.1569 -0.44686,-6.27581 3.72283,-14.83909 13.25918,-15.00454 9.53635,-0.16546 19.2597,1.87865 20.14431,15.98774 0.88462,14.1091 -8.77489,18.2173 -17.30626,18.3484 -8.53137,0.1312 -24.40414,-3.3541 -24.44253,-19.67794"
       style="fill:none;stroke:#000000;stroke-width:1px;stroke-linecap:butt;stroke-linejoin:miter;stroke-opacity:1;marker-end:url(#Arrow1Mend)"
       inkscape:export-filename="/home/ivan/Documents/FAKS/Musik T1/violinschluessel06.png"
       inkscape:export-xdpi="300"
       inkscape:export-ydpi="300" />
  </g>
</svg>
