<?xml version="1.0" encoding="UTF-8" standalone="no"?>
<!-- Created with Inkscape (http://www.inkscape.org/) -->

<svg
   xmlns:dc="http://purl.org/dc/elements/1.1/"
   xmlns:cc="http://creativecommons.org/ns#"
   xmlns:rdf="http://www.w3.org/1999/02/22-rdf-syntax-ns#"
   xmlns:svg="http://www.w3.org/2000/svg"
   xmlns="http://www.w3.org/2000/svg"
   xmlns:sodipodi="http://sodipodi.sourceforge.net/DTD/sodipodi-0.dtd"
   xmlns:inkscape="http://www.inkscape.org/namespaces/inkscape"
   width="210mm"
   height="297mm"
   id="svg3205"
   version="1.1"
   inkscape:version="0.48.4 r9939"
   sodipodi:docname="violinschl.svg"
   inkscape:export-filename="D:\Ivan\FAKS\Kalligrafie\img\violinschl.png"
   inkscape:export-xdpi="300"
   inkscape:export-ydpi="300">
  <defs
     id="defs3">
    <marker
       inkscape:stockid="Arrow2Send"
       orient="auto"
       refY="0.0"
       refX="0.0"
       id="Arrow2Send"
       style="overflow:visible;">
      <path
         id="path4060"
         style="fill-rule:evenodd;stroke-width:0.62500000;stroke-linejoin:round;"
         d="M 8.7185878,4.0337352 L -2.2072895,0.016013256 L 8.7185884,-4.0017078 C 6.9730900,-1.6296469 6.9831476,1.6157441 8.7185878,4.0337352 z "
         transform="scale(0.3) rotate(180) translate(-2.3,0)" />
    </marker>
    <marker
       inkscape:stockid="Arrow2Sstart"
       orient="auto"
       refY="0.0"
       refX="0.0"
       id="Arrow2Sstart"
       style="overflow:visible">
      <path
         id="path4057"
         style="fill-rule:evenodd;stroke-width:0.62500000;stroke-linejoin:round"
         d="M 8.7185878,4.0337352 L -2.2072895,0.016013256 L 8.7185884,-4.0017078 C 6.9730900,-1.6296469 6.9831476,1.6157441 8.7185878,4.0337352 z "
         transform="scale(0.3) translate(-2.3,0)" />
    </marker>
  </defs>
  <sodipodi:namedview
     inkscape:document-units="mm"
     id="base"
     pagecolor="#ffffff"
     bordercolor="#666666"
     borderopacity="1.0"
     inkscape:pageopacity="0.0"
     inkscape:pageshadow="2"
     inkscape:zoom="4.3992143"
     inkscape:cx="359.893"
     inkscape:cy="528.94182"
     inkscape:current-layer="layer1"
     showgrid="false"
     inkscape:window-width="1920"
     inkscape:window-height="1058"
     inkscape:window-x="-8"
     inkscape:window-y="-8"
     inkscape:window-maximized="1" />
  <metadata
     id="metadata4">
    <rdf:RDF>
      <cc:Work
         rdf:about="">
        <dc:format>image/svg+xml</dc:format>
        <dc:type
           rdf:resource="http://purl.org/dc/dcmitype/StillImage" />
        <dc:title></dc:title>
      </cc:Work>
    </rdf:RDF>
  </metadata>
  <g
     inkscape:label="Layer 1"
     inkscape:groupmode="layer"
     id="layer1">
    <g
       transform="matrix(0.27574827,0,0,2.0132004,244.96605,279.83883)"
       id="g6619"
       inkscape:export-filename="D:\Ivan\FAKS\Kalligrafie\img\vschluessel.png"
       inkscape:export-xdpi="300"
       inkscape:export-ydpi="300">
      <path
         inkscape:tile-y0="95.02824"
         inkscape:tile-x0="89.187312"
         inkscape:tile-h="0"
         inkscape:tile-w="583.43578"
         inkscape:tile-cy="95.02824"
         inkscape:tile-cx="380.9052"
         inkscape:connector-curvature="0"
         id="path6621"
         d="m 89.187312,143.94072 583.435778,0"
         style="fill:none;stroke:#000000;stroke-width:1.64831364px;stroke-linecap:butt;stroke-linejoin:miter;stroke-opacity:1" />
      <path
         style="fill:none;stroke:#000000;stroke-width:1.64831364px;stroke-linecap:butt;stroke-linejoin:miter;stroke-opacity:1"
         d="m 89.187312,134.87275 583.435778,0"
         id="path6623"
         inkscape:connector-curvature="0"
         inkscape:tile-cx="380.9052"
         inkscape:tile-cy="95.02824"
         inkscape:tile-w="583.43578"
         inkscape:tile-h="0"
         inkscape:tile-x0="89.187312"
         inkscape:tile-y0="95.02824" />
      <path
         inkscape:tile-y0="95.02824"
         inkscape:tile-x0="89.187312"
         inkscape:tile-h="0"
         inkscape:tile-w="583.43578"
         inkscape:tile-cy="95.02824"
         inkscape:tile-cx="380.9052"
         inkscape:connector-curvature="0"
         id="path6625"
         d="m 89.187312,125.80478 583.435778,0"
         style="fill:none;stroke:#000000;stroke-width:1.64831364px;stroke-linecap:butt;stroke-linejoin:miter;stroke-opacity:1" />
      <path
         style="fill:none;stroke:#000000;stroke-width:1.64831364px;stroke-linecap:butt;stroke-linejoin:miter;stroke-opacity:1"
         d="m 89.187312,116.73681 583.435778,0"
         id="path6627"
         inkscape:connector-curvature="0"
         inkscape:tile-cx="380.9052"
         inkscape:tile-cy="95.02824"
         inkscape:tile-w="583.43578"
         inkscape:tile-h="0"
         inkscape:tile-x0="89.187312"
         inkscape:tile-y0="95.02824" />
      <path
         inkscape:tile-y0="95.02824"
         inkscape:tile-x0="89.187312"
         inkscape:tile-h="0"
         inkscape:tile-w="583.43578"
         inkscape:tile-cy="95.02824"
         inkscape:tile-cx="380.9052"
         inkscape:connector-curvature="0"
         id="path6629"
         d="m 89.187312,107.66884 583.435778,0"
         style="fill:none;stroke:#000000;stroke-width:1.64831364px;stroke-linecap:butt;stroke-linejoin:miter;stroke-opacity:1" />
    </g>
    <g
       style="font-size:144px;font-style:normal;font-variant:normal;font-weight:normal;font-stretch:normal;line-height:125%;letter-spacing:0px;word-spacing:0px;fill:#000000;fill-opacity:1;stroke:none;font-family:NoteHedz;-inkscape-font-specification:NoteHedz"
       id="text6631"
       transform="matrix(1.0604374,0,0,1.0604374,234.23334,372.85768)"
       inkscape:export-filename="D:\Ivan\FAKS\Kalligrafie\img\vschluessel.png"
       inkscape:export-xdpi="300"
       inkscape:export-ydpi="300">
      <path
         d="m 73.523391,159.10144 4.896,22.032 c 2.01597,-1.05597 3.64797,-2.59196 4.896,-4.608 1.24796,-2.01596 1.87196,-4.22396 1.872,-6.624 -4e-5,-1.24795 -0.096,-2.20795 -0.288,-2.88 -0.28804,-0.67195 -0.86404,-1.63195 -1.728,-2.88 -2.01603,-3.35995 -5.23203,-5.03995 -9.648,-5.04 l 0,0 m -4.032,-18.72 2.448,11.232 c 1.05597,-0.0959 2.01597,-0.14394 2.88,-0.144 2.87997,6e-5 5.47197,0.72006 7.776,2.16 2.39996,1.72806 4.22396,3.79206 5.472,6.192 1.24796,2.40005 1.87196,5.08805 1.872,8.064 -4e-5,3.45604 -1.00804,6.52804 -3.024,9.216 -2.01604,2.59203 -4.75203,4.75203 -8.208,6.48 l 2.88,13.536 c 0.19197,0.48002 0.28797,1.53602 0.288,3.168 -3e-5,3.45601 -1.10403,6.24001 -3.312,8.352 -2.11203,2.208 -5.04003,3.408 -8.784,3.6 -0.76802,0 -1.92002,-0.048 -3.456,-0.144 -0.86402,-0.096 -1.92002,-0.432 -3.168,-1.008 -1.72801,-0.768 -3.26401,-1.824 -4.608,-3.168 -1.34401,-1.43999 -2.01601,-3.07199 -2.016,-4.896 -10e-6,-1.34399 0.23999,-2.68799 0.72,-4.032 0.28799,-0.86398 0.67199,-1.48798 1.152,-1.872 0.19199,-0.38398 0.57599,-0.76798 1.152,-1.152 1.05599,-0.86398 2.20799,-1.43998 3.456,-1.728 2.78398,2e-5 4.89598,1.15202 6.336,3.456 0.57598,0.96002 0.86398,1.96801 0.864,3.024 -2e-5,1.53601 -0.33602,2.78401 -1.008,3.744 -0.67202,0.96001 -1.63202,1.68001 -2.88,2.16 -0.96002,0.48001 -2.06402,0.72001 -3.312,0.72 0.096,1.05601 1.00798,1.776 2.736,2.16 1.24798,0.48 2.49598,0.72 3.744,0.72 3.16798,-0.48 5.56797,-1.53599 7.2,-3.168 0.95997,-1.05599 1.63197,-2.11199 2.016,-3.168 0.38397,-1.05599 0.57597,-2.30399 0.576,-3.744 -3e-5,-1.63198 -0.14403,-3.21598 -0.432,-4.752 l -2.448,-11.088 c -2.20803,0.67203 -4.36802,1.00803 -6.48,1.008 -3.84002,3e-5 -7.58401,-1.00797 -11.232,-3.024 -3.55201,-2.11197 -6.384,-4.79996 -8.496,-8.064 -1.44,-2.59196 -2.352,-4.46396 -2.736,-5.616 -0.384,-0.76795 -0.576,-2.06395 -0.576,-3.888 l -0.144,-3.744 c -0.288,-2.59194 0.24,-5.47194 1.584,-8.64 1.152,-2.49594 2.592,-5.03993 4.32,-7.632 1.05599,-1.24793 2.63999,-3.07193 4.752,-5.472 l 8.064,-8.064 c -0.76802,-2.87991 -1.34402,-5.42391 -1.728,-7.632 -0.38402,-2.30391 -0.57602,-4.75191 -0.576,-7.344 -2e-5,-5.8559 1.48798,-11.27989 4.464,-16.271999 0.67198,-0.95989 1.48798,-1.82388 2.448,-2.592 0.47998,-0.47988 1.43998,-0.91188 2.88,-1.296 0.47997,1.2e-4 1.10397,0.0961 1.872,0.288 0.47997,0.48012 1.10397,1.24812 1.872,2.304 1.24797,2.592109 2.30397,5.328109 3.168,8.207999 0.19197,0.96011 0.47997,2.4481 0.864,4.464 0.28797,1.5361 0.43197,2.7841 0.432,3.744 -3e-5,2.7841 -0.52803,5.85609 -1.584,9.216 -0.67203,2.01609 -1.24803,3.55209 -1.728,4.608 -0.38403,1.05608 -1.15203,2.40008 -2.304,4.032 -1.63203,2.68808 -3.64802,5.18408 -6.048,7.488 l 0,0 m 6.624,41.328 -4.752,-22.464 c -1.92002,0.48005 -3.69602,1.68005 -5.328,3.6 -1.53602,1.82405 -2.30402,3.74405 -2.304,5.76 -2e-5,3.26404 1.91998,5.66404 5.76,7.2 0.38398,0.096 0.57598,0.28804 0.576,0.576 -2e-5,0.48004 -0.38402,0.72004 -1.152,0.72 -2.59202,-0.76796 -4.75202,-2.30396 -6.48,-4.608 -1.63201,-2.39996 -2.44801,-4.99195 -2.448,-7.776 -1e-5,-2.49595 0.95999,-5.03995 2.88,-7.632 2.01598,-2.68794 4.31998,-4.46394 6.912,-5.328 l -2.16,-10.224 c -0.67202,0.57607 -2.16002,1.92007 -4.464,4.032 -1.34401,1.44007 -2.54401,2.68807 -3.6,3.744 -5.18401,5.28006 -7.776,10.84805 -7.776,16.704 0,2.59205 0.432,4.84804 1.296,6.768 1.91999,4.12804 5.42399,7.05603 10.512,8.784 2.49598,0.76803 5.08798,1.15203 7.776,1.152 1.15198,3e-5 2.73597,-0.33597 4.752,-1.008 l 0,0 m 1.296,-72 -0.432,-1.728 c -0.19203,-0.86389 -0.67203,-1.82389 -1.44,-2.88 -0.48003,-0.67189 -1.15203,-1.00789 -2.016,-1.008 -0.67202,0.19211 -1.20002,0.52811 -1.584,1.008 -0.38402,0.28811 -1.10402,1.24811 -2.16,2.88 -1.63202,2.4001 -2.78402,5.5681 -3.456,9.504 -0.19202,1.1521 -0.28802,2.16009 -0.288,3.024 -2e-5,2.40009 0.43198,5.28009 1.296,8.64 2.68798,-2.11191 5.27998,-5.32791 7.776,-9.648 1.05597,-1.8239 1.67997,-3.3599 1.872,-4.608 0.28797,-1.2479 0.43197,-2.9759 0.432,-5.184 l 0,0"
         id="path6636"
         inkscape:connector-curvature="0" />
    </g>
    <path
       style="fill:none;stroke:#000000;stroke-width:1.25;stroke-linecap:butt;stroke-linejoin:miter;stroke-opacity:1;stroke-miterlimit:4;stroke-dasharray:none"
       d="m 372.53872,561.69452 c -7.54589,-0.26545 -12.67091,-5.88105 -13.11778,-12.15686 -0.44686,-6.27581 3.72283,-14.83909 13.25918,-15.00454 9.53635,-0.16546 19.2597,1.87865 20.14431,15.98773 0.88462,14.10908 -8.77489,18.21727 -17.30626,18.34843 -8.53137,0.13116 -24.40414,-3.35409 -24.44253,-19.67796 -0.0692,-11.19047 12.41934,-30.31835 18.2133,-37.65553 5.79396,-7.33718 11.93397,-22.27142 11.69912,-25.4423 -0.23485,-3.17088 1.77053,-13.71035 -5.08018,-18.79132 -4.36925,2.16036 -8.55861,17.03438 -7.53882,26.94109 1.01978,9.90671 2.67623,20.23904 4.07939,29.30354 0.7444,9.78283 3.0764,18.91299 4.0503,24.10409 0.9739,5.1911 0.58325,4.38641 2.57983,12.92892 1.99659,8.54251 4.58885,17.60897 4.37931,25.9089 -0.13574,5.37656 -4.87334,9.31414 -10.07716,8.97423 -5.41352,-0.39174 -7.87891,-6.28344 -2.47286,-9.90306"
       id="path6691"
       inkscape:connector-curvature="0"
       sodipodi:nodetypes="czzzzczzczczzscc"
       inkscape:export-filename="D:\Ivan\FAKS\Kalligrafie\img\vschluessel.png"
       inkscape:export-xdpi="300"
       inkscape:export-ydpi="300" />
    <path
       style="fill:none;stroke:#000000;stroke-width:0.83358848;stroke-linecap:butt;stroke-linejoin:miter;stroke-miterlimit:4;stroke-opacity:1;stroke-dasharray:none;marker-start:none;marker-end:url(#Arrow2Send)"
       d="m 372.77473,558.39126 c 0,0 -3.99938,-0.0531 -7.24313,-2.79819 -3.24374,-2.74517 -3.25203,-7.46182 -3.25203,-7.46182"
       id="path3253"
       inkscape:connector-curvature="0"
       sodipodi:nodetypes="czc"
       inkscape:export-filename="D:\Ivan\FAKS\Kalligrafie\img\vschluessel.png"
       inkscape:export-xdpi="300"
       inkscape:export-ydpi="300" />
    <text
       xml:space="preserve"
       style="font-size:65.68331909px;font-style:normal;font-variant:normal;font-weight:normal;font-stretch:normal;line-height:125%;letter-spacing:0px;word-spacing:0px;fill:#000000;fill-opacity:1;stroke:none;font-family:Cambria;-inkscape-font-specification:Cambria"
       x="371.89261"
       y="563.1839"
       id="text4837"
       sodipodi:linespacing="125%"
       inkscape:export-filename="D:\Ivan\FAKS\Kalligrafie\img\vschluessel.png"
       inkscape:export-xdpi="300"
       inkscape:export-ydpi="300"><tspan
         sodipodi:role="line"
         id="tspan4839"
         x="371.89261"
         y="563.1839"
         style="font-size:13.13666344px">1</tspan></text>
    <path
       style="fill:none;stroke:#000000;stroke-width:1px;stroke-linecap:butt;stroke-linejoin:miter;stroke-opacity:1;marker-end:url(#Arrow2Send)"
       d="m 358.4731,537.49753 c 0,0 2.04581,-6.8194 14.77536,-7.27403 12.72955,-0.45463 23.86791,9.09253 23.41328,21.14013 -0.45463,12.04761 -8.6379,21.59478 -20.45821,21.82209 -11.8203,0.2273 -20.23087,-5.22821 -20.23087,-5.22821"
       id="path4841"
       inkscape:connector-curvature="0"
       sodipodi:nodetypes="czzzc"
       inkscape:export-filename="D:\Ivan\FAKS\Kalligrafie\img\vschluessel.png"
       inkscape:export-xdpi="300"
       inkscape:export-ydpi="300" />
    <text
       xml:space="preserve"
       style="font-size:13.13666344px;font-style:normal;font-variant:normal;font-weight:normal;font-stretch:normal;line-height:125%;letter-spacing:0px;word-spacing:0px;fill:#000000;fill-opacity:1;stroke:none;font-family:Cambria;-inkscape-font-specification:Cambria"
       x="397.02011"
       y="546.59009"
       id="text5027"
       sodipodi:linespacing="125%"
       inkscape:export-filename="D:\Ivan\FAKS\Kalligrafie\img\vschluessel.png"
       inkscape:export-xdpi="300"
       inkscape:export-ydpi="300"><tspan
         sodipodi:role="line"
         id="tspan5029"
         x="397.02011"
         y="546.59009">2</tspan></text>
    <path
       style="fill:none;stroke:#000000;stroke-width:1px;stroke-linecap:butt;stroke-linejoin:miter;stroke-opacity:1;marker-end:url(#Arrow2Send)"
       d="m 345.74355,546.13543 c -0.22731,-8.86523 12.72955,-27.2776 17.0485,-33.64237 4.31896,-6.36478 14.32074,-17.73044 14.77537,-26.14104 0.45463,-8.41059 -1.81851,-12.95685 -1.81851,-12.95685"
       id="path5031"
       inkscape:connector-curvature="0"
       sodipodi:nodetypes="cssc"
       inkscape:export-filename="D:\Ivan\FAKS\Kalligrafie\img\vschluessel.png"
       inkscape:export-xdpi="300"
       inkscape:export-ydpi="300" />
    <text
       xml:space="preserve"
       style="font-size:12.98620796px;font-style:normal;font-variant:normal;font-weight:normal;font-stretch:normal;line-height:125%;letter-spacing:0px;word-spacing:0px;fill:#000000;fill-opacity:1;stroke:none;font-family:Cambria;-inkscape-font-specification:Cambria"
       x="347.21149"
       y="526.54755"
       id="text5217"
       sodipodi:linespacing="125%"
       inkscape:export-filename="D:\Ivan\FAKS\Kalligrafie\img\vschluessel.png"
       inkscape:export-xdpi="300"
       inkscape:export-ydpi="300"><tspan
         sodipodi:role="line"
         id="tspan5219"
         x="347.21149"
         y="526.54755">3</tspan></text>
    <path
       style="fill:none;stroke:#000000;stroke-width:1px;stroke-linecap:butt;stroke-linejoin:miter;stroke-opacity:1;marker-end:url(#Arrow2Send)"
       d="m 370.06608,466.12114 c -4.31895,5.2282 -6.59207,12.95686 -6.59208,20.23088 -10e-6,7.27403 1.8185,12.72955 2.04582,15.68462"
       id="path5221"
       inkscape:connector-curvature="0"
       sodipodi:nodetypes="czc"
       inkscape:export-filename="D:\Ivan\FAKS\Kalligrafie\img\vschluessel.png"
       inkscape:export-xdpi="300"
       inkscape:export-ydpi="300" />
    <text
       xml:space="preserve"
       style="font-size:13.22283649px;font-style:normal;font-variant:normal;font-weight:normal;font-stretch:normal;line-height:125%;letter-spacing:0px;word-spacing:0px;fill:#000000;fill-opacity:1;stroke:none;font-family:Cambria;-inkscape-font-specification:Cambria"
       x="358.73135"
       y="471.80396"
       id="text5407"
       sodipodi:linespacing="125%"
       inkscape:export-filename="D:\Ivan\FAKS\Kalligrafie\img\vschluessel.png"
       inkscape:export-xdpi="300"
       inkscape:export-ydpi="300"><tspan
         sodipodi:role="line"
         id="tspan5409"
         x="358.73135"
         y="471.80396">4</tspan></text>
    <path
       style="fill:none;stroke:#000000;stroke-width:1px;stroke-linecap:butt;stroke-linejoin:miter;stroke-opacity:1;marker-end:url(#Arrow2Send)"
       d="m 387.79652,583.1875 c 1.59119,8.63791 -0.90927,10.2291 -2.50046,12.0476 -1.59118,1.81851 -3.637,2.72776 -8.41058,3.18239 -4.77358,0.45462 -8.01854,-1.47147 -9.77447,-3.4097 -1.75593,-1.93822 -2.72776,-4.54627 -0.22731,-8.86522"
       id="path5411"
       inkscape:connector-curvature="0"
       sodipodi:nodetypes="czzzc"
       inkscape:export-filename="D:\Ivan\FAKS\Kalligrafie\img\vschluessel.png"
       inkscape:export-xdpi="300"
       inkscape:export-ydpi="300" />
    <text
       xml:space="preserve"
       style="font-size:12.5374794px;font-style:normal;font-variant:normal;font-weight:normal;font-stretch:normal;line-height:125%;letter-spacing:0px;word-spacing:0px;fill:#000000;fill-opacity:1;stroke:none;font-family:Cambria;-inkscape-font-specification:Cambria"
       x="389.28268"
       y="589.97144"
       id="text5597"
       sodipodi:linespacing="125%"
       inkscape:export-filename="D:\Ivan\FAKS\Kalligrafie\img\vschluessel.png"
       inkscape:export-xdpi="300"
       inkscape:export-ydpi="300"><tspan
         sodipodi:role="line"
         id="tspan5599"
         x="389.28268"
         y="589.97144">5</tspan></text>
  </g>
</svg>
